<svg width="61" height="61" viewBox="0 0 61 61" fill="none" xmlns="http://www.w3.org/2000/svg">
<path d="M59.2129 7.14844H50.1582V1.78711C50.1582 0.800148 49.3581 0 48.3711 0H12.6289C11.6419 0 10.8418 0.800148 10.8418 1.78711V7.14844H1.78711C0.800148 7.14844 0 7.94859 0 8.93555V48.252C0 49.2389 0.800148 50.0391 1.78711 50.0391H21.5645V57.4258H16.2031C15.2162 57.4258 14.416 58.2259 14.416 59.2129C14.416 60.1999 15.2162 61 16.2031 61H44.7969C45.7838 61 46.584 60.1999 46.584 59.2129C46.584 58.2259 45.7838 57.4258 44.7969 57.4258H39.4355V50.0391H59.2129C60.1999 50.0391 61 49.2389 61 48.252V8.93555C61 7.94859 60.1999 7.14844 59.2129 7.14844ZM57.4258 10.7227V39.3164H50.1582V10.7227H57.4258ZM14.416 3.57422H46.584V39.3164H14.416V3.57422ZM10.8418 10.7227V39.3164H3.57422V10.7227H10.8418ZM35.8613 57.4258H25.1387V50.0391H35.8613V57.4258ZM3.57422 46.4648V42.8906H57.4258V46.4648H3.57422Z" fill="white"/>
<path d="M22.088 15.5605C22.4368 15.9096 22.8942 16.084 23.3516 16.084C23.8089 16.084 24.2663 15.9096 24.6152 15.5605L29.9765 10.1992C30.6744 9.50129 30.6744 8.36981 29.9765 7.67188C29.2787 6.97396 28.1471 6.97396 27.4492 7.67188L23.3516 11.7696L21.0409 9.45911C20.3431 8.76118 19.2115 8.76118 18.5136 9.45911C17.8157 10.157 17.8157 11.2885 18.5136 11.9864L22.088 15.5605Z" fill="white"/>
<path d="M22.088 26.2832C22.4368 26.6323 22.8942 26.8067 23.3516 26.8067C23.8089 26.8067 24.2663 26.6323 24.6152 26.2832L29.9765 20.9219C30.6744 20.2239 30.6744 19.0925 29.9765 18.3945C29.2787 17.6966 28.1471 17.6966 27.4492 18.3945L23.3516 22.4923L21.0409 20.1818C20.3431 19.4838 19.2115 19.4838 18.5136 20.1818C17.8157 20.8797 17.8157 22.0112 18.5136 22.7091L22.088 26.2832Z" fill="white"/>
<path d="M22.088 37.0059C22.4368 37.3549 22.8942 37.5294 23.3516 37.5294C23.8089 37.5294 24.2663 37.3549 24.6152 37.0059L29.9765 31.6445C30.6744 30.9466 30.6744 29.8151 29.9765 29.1172C29.2787 28.4193 28.1471 28.4193 27.4492 29.1172L23.3516 33.2149L21.0409 30.9044C20.3431 30.2065 19.2115 30.2065 18.5136 30.9044C17.8157 31.6024 17.8157 32.7338 18.5136 33.4318L22.088 37.0059Z" fill="white"/>
<path d="M34.0742 14.2969H41.2227C42.2096 14.2969 43.0098 13.4967 43.0098 12.5098C43.0098 11.5228 42.2096 10.7227 41.2227 10.7227H34.0742C33.0873 10.7227 32.2871 11.5228 32.2871 12.5098C32.2871 13.4967 33.0873 14.2969 34.0742 14.2969Z" fill="white"/>
<path d="M34.0742 25.0195H41.2227C42.2096 25.0195 43.0098 24.2194 43.0098 23.2324C43.0098 22.2455 42.2096 21.4453 41.2227 21.4453H34.0742C33.0873 21.4453 32.2871 22.2455 32.2871 23.2324C32.2871 24.2194 33.0873 25.0195 34.0742 25.0195Z" fill="white"/>
<path d="M34.0742 35.7422H41.2227C42.2096 35.7422 43.0098 34.942 43.0098 33.9551C43.0098 32.9681 42.2096 32.168 41.2227 32.168H34.0742C33.0873 32.168 32.2871 32.9681 32.2871 33.9551C32.2871 34.942 33.0873 35.7422 34.0742 35.7422Z" fill="white"/>
</svg>
