<svg width="558" height="297" viewBox="0 0 558 297" fill="none" xmlns="http://www.w3.org/2000/svg">
<g clip-path="url(#clip0)">
<path opacity="0.1" d="M515.217 234.853C514.596 236.193 513.976 237.515 513.358 238.819C512.393 240.845 511.441 242.832 510.502 244.779C510.084 245.642 509.666 246.489 509.259 247.335C504.65 256.752 500.347 265.08 496.693 271.929C493.377 278.136 488.453 283.336 482.437 286.985C476.421 290.634 469.535 292.597 462.5 292.67L381.237 293.555H380.379L373.413 293.63L367.454 293.694L349.182 293.892H348.442L339.14 293.994H338.856L281.519 294.616L230.339 295.152L224.386 295.216L187.411 295.618H187.368L163.389 295.875H163.132L87.3076 296.695L64.6247 296.942C59.7841 296.996 54.9639 296.306 50.3333 294.894C42.2752 292.46 35.0332 287.874 29.3866 281.63C19.6447 270.895 12.5446 258.37 7.77546 244.779C7.08599 242.817 6.44296 240.831 5.84637 238.819C-10.6634 183.002 9.46342 110.988 45.6875 62.7963C47.2057 60.7811 48.749 58.816 50.3173 56.901L50.3548 56.8581C61.4953 43.181 73.9861 31.7548 87.2915 23.63C110.869 9.20797 136.992 5.14557 162.687 17.2524C184.427 27.4995 204.725 32.3176 224.402 33.6252C226.39 33.7539 228.378 33.8503 230.355 33.9093C275.49 35.3295 317.791 19.0638 367.465 8.56484C369.442 8.14681 371.425 7.73414 373.424 7.34291C408.86 0.289983 448.171 -3.42942 494.919 4.3899C499.776 5.18344 504.568 6.3298 509.259 7.81989C511.32 8.48445 513.306 9.19904 515.217 9.96364C537.53 19.0424 549.7 35.8172 554.871 56.8367C555.36 58.7875 555.784 60.7722 556.141 62.7909C565.309 113.351 538.457 185.07 515.217 234.853Z" fill="#FFC25C"/>
<g opacity="0.1">
<path opacity="0.1" d="M87.2913 23.6295V296.753L64.6084 297C59.7679 297.055 54.9477 296.364 50.3171 294.953V56.8575H50.3546C61.4951 43.1643 73.986 31.7382 87.2913 23.6295Z" fill="#FFC25C"/>
<path opacity="0.1" d="M556.167 62.7957H45.6873C47.2056 60.7806 48.7488 58.8155 50.3171 56.9004V56.8575H554.897C555.387 58.7976 555.81 60.777 556.167 62.7957Z" fill="#FFC25C"/>
<path opacity="0.1" d="M515.217 9.96843V238.813H513.358C512.393 240.839 511.441 242.826 510.502 244.773C510.084 245.636 509.666 246.483 509.258 247.329V7.80325C511.32 8.46781 513.306 9.18954 515.217 9.96843Z" fill="#FFC25C"/>
<path opacity="0.1" d="M373.424 7.32626V293.65L367.465 293.715V8.5482C369.442 8.13017 371.425 7.7175 373.424 7.32626Z" fill="#FFC25C"/>
<path opacity="0.1" d="M230.355 33.8926V295.205L224.401 295.269V33.6086C226.389 33.7372 228.377 33.8122 230.355 33.8926Z" fill="#FFC25C"/>
<path opacity="0.1" d="M513.358 238.819C512.393 240.845 511.441 242.831 510.502 244.778H7.7753C7.08583 242.817 6.4428 240.83 5.84621 238.819H513.358Z" fill="#FFC25C"/>
</g>
<path d="M123.569 142.468H113.388V173.37H123.569V142.468Z" fill="#3F3D56"/>
<path d="M397.569 140.86H387.388V173.552H397.569V140.86Z" fill="#3F3D56"/>
<path d="M462.499 286.003V292.97L381.092 293.72L380.224 293.736L349.283 294.02L348.544 294.031L339.139 294.111H338.861L281.535 294.642L187.433 295.515H187.352L163.426 295.741L163.169 295.746L56.8546 296.721V288.682L81.8524 273.676L132.009 273.258L133.08 273.253L133.434 273.247L134.506 273.231L158.587 273.033L159.664 273.028L160.007 273.022L161.079 273.017L168.801 272.953L169.004 272.947L188.054 272.786H188.21L336.857 271.532L340.495 271.506H340.86L343.635 271.479L363.81 271.313L364.882 271.296L365.873 271.286H366.388L372.663 271.238L373.906 271.221L375.572 271.211L380.797 271.163L389.087 271.093L390.159 271.082L392.023 271.071H392.372L432.406 270.728L462.499 286.003Z" fill="#65617D"/>
<path opacity="0.2" d="M462.499 286.003V292.97L381.092 293.72L380.224 293.736L349.283 294.02L348.544 294.031L339.139 294.111H338.861L281.535 294.642L187.433 295.515H187.352L163.426 295.741L163.169 295.746L56.8546 296.721V288.682L81.8524 273.676L132.009 273.258L133.08 273.253L133.434 273.247L134.506 273.231L158.587 273.033L159.664 273.028L160.007 273.022L161.079 273.017L168.801 272.953L169.004 272.947L188.054 272.786H188.21L336.857 271.532L340.495 271.506H340.86L343.635 271.479L363.81 271.313L364.882 271.296L365.873 271.286H366.388L372.663 271.238L373.906 271.221L375.572 271.211L380.797 271.163L389.087 271.093L390.159 271.082L392.023 271.071H392.372L432.406 270.728L462.499 286.003Z" fill="black"/>
<path d="M158.668 259.211V272.336C158.668 272.958 158.492 273.567 158.16 274.092C157.828 274.618 157.354 275.039 156.792 275.305C156.374 275.508 155.917 275.618 155.453 275.627L136.751 276.023C136.252 276.035 135.756 275.931 135.304 275.718C134.733 275.456 134.249 275.035 133.91 274.506C133.571 273.977 133.391 273.361 133.391 272.733V259.211H158.668Z" fill="#3F3D56"/>
<path opacity="0.1" d="M158.668 259.211V272.336C158.668 272.958 158.492 273.567 158.16 274.092C157.828 274.618 157.354 275.039 156.792 275.305C156.374 275.508 155.917 275.618 155.453 275.627L136.751 276.023C136.252 276.035 135.756 275.931 135.304 275.718C134.733 275.456 134.249 275.035 133.91 274.506C133.571 273.977 133.391 273.361 133.391 272.733V259.211H158.668Z" fill="black"/>
<path d="M159.739 259.211V272.336C159.74 272.958 159.564 273.567 159.232 274.092C158.9 274.618 158.425 275.039 157.864 275.305C157.446 275.508 156.989 275.618 156.524 275.627L137.823 276.023C137.323 276.035 136.828 275.931 136.376 275.718C135.805 275.456 135.321 275.035 134.981 274.506C134.642 273.977 134.462 273.361 134.463 272.733V259.211H159.739Z" fill="#3F3D56"/>
<path d="M390.159 259.211H364.882V276.093H390.159V259.211Z" fill="#3F3D56"/>
<path opacity="0.1" d="M390.159 259.211H364.882V276.093H390.159V259.211Z" fill="black"/>
<path d="M389.087 259.211H363.81V276.093H389.087V259.211Z" fill="#3F3D56"/>
<path opacity="0.1" d="M123.569 142.463V145.534L113.388 145.271V142.463H123.569Z" fill="black"/>
<path d="M190.583 55.9518L178.35 143.845C178.272 144.407 177.99 144.92 177.558 145.287C177.126 145.654 176.574 145.848 176.008 145.834L78.0531 143.293L76.1937 143.245C75.8699 143.237 75.5514 143.162 75.259 143.023C74.9665 142.884 74.7066 142.684 74.4963 142.438C74.2859 142.192 74.1299 141.904 74.0382 141.593C73.9466 141.283 73.9215 140.956 73.9645 140.635L87.6986 48.6255C87.7871 48.0556 88.0861 47.5396 88.5365 47.1794C88.9869 46.8192 89.556 46.6411 90.1314 46.6801L188.44 53.3364C188.757 53.3548 189.067 53.4387 189.35 53.5829C189.633 53.7271 189.883 53.9285 190.085 54.1742C190.286 54.42 190.434 54.7048 190.52 55.0108C190.606 55.3167 190.628 55.6371 190.583 55.9518Z" fill="#65617D"/>
<path d="M94.2736 53.1435L83.9154 134.247L173.94 137.103L185.01 58.8566L94.2736 53.1435Z" fill="#FFC25C"/>
<path d="M312.909 51.8894H208.947C207.37 51.8894 206.091 53.1683 206.091 54.7459V141.927C206.091 143.504 207.37 144.783 208.947 144.783H312.909C314.487 144.783 315.765 143.504 315.765 141.927V54.7459C315.765 53.1683 314.487 51.8894 312.909 51.8894Z" fill="#65617D"/>
<path d="M310.937 58.1438H211.268V135.496H310.937V58.1438Z" fill="#FFC25C"/>
<path opacity="0.1" d="M397.569 140.855V142.886L387.388 143.095V140.855H397.569Z" fill="black"/>
<path d="M443.509 139.14C443.523 139.362 443.493 139.585 443.419 139.795C443.345 140.005 443.23 140.197 443.079 140.362C442.929 140.526 442.748 140.658 442.545 140.75C442.342 140.842 442.123 140.892 441.901 140.898L341.588 142.972C341.172 142.98 340.767 142.831 340.456 142.554C340.145 142.276 339.95 141.892 339.911 141.477L331.289 51.8251C331.268 51.6027 331.292 51.3782 331.36 51.1654C331.428 50.9526 331.538 50.7557 331.685 50.5869C331.831 50.418 332.01 50.2806 332.211 50.183C332.412 50.0854 332.631 50.0296 332.854 50.019L432.406 45.0669L433.477 45.0133C433.903 44.9909 434.321 45.1348 434.643 45.4148C434.965 45.6948 435.166 46.0889 435.203 46.514L443.509 139.14Z" fill="#65617D"/>
<path d="M337.017 55.2872L427.937 50.8175L435.615 132.28L345.414 134.424L337.017 55.2872Z" fill="#FFC25C"/>
<path opacity="0.1" d="M443.509 139.14C443.523 139.362 443.493 139.585 443.419 139.795C443.345 140.005 443.23 140.197 443.079 140.362C442.929 140.526 442.748 140.658 442.545 140.75C442.342 140.842 442.123 140.892 441.901 140.898L432.406 45.0669L433.477 45.0133C433.903 44.9909 434.321 45.1348 434.643 45.4148C434.965 45.6948 435.166 46.0889 435.203 46.514L443.509 139.14Z" fill="black"/>
<path opacity="0.1" d="M90.1475 46.6747L78.0531 143.293L76.1937 143.245C75.8699 143.237 75.5514 143.162 75.259 143.023C74.9665 142.883 74.7066 142.684 74.4963 142.438C74.2859 142.192 74.1299 141.904 74.0382 141.593C73.9466 141.283 73.9215 140.956 73.9645 140.635L87.6986 48.6255C87.7861 48.0517 88.0869 47.532 88.5409 47.1703C88.9949 46.8086 89.5686 46.6316 90.1475 46.6747Z" fill="black"/>
<path opacity="0.1" d="M123.569 164.216H113.388V173.37H123.569V164.216Z" fill="black"/>
<path opacity="0.1" d="M159.739 259.206V261.869L134.463 262.545V259.206H159.739Z" fill="black"/>
<path d="M204.35 167.405V257.55C204.343 258.1 204.125 258.627 203.741 259.021C203.357 259.415 202.836 259.646 202.287 259.667L99.5893 262.4H99.5625C99.0033 262.393 98.4689 262.168 98.0735 261.772C97.678 261.377 97.4528 260.842 97.4458 260.283V167.405C97.4528 166.846 97.678 166.311 98.0735 165.916C98.4689 165.52 99.0033 165.295 99.5625 165.288H202.233C202.792 165.295 203.327 165.52 203.722 165.916C204.117 166.311 204.343 166.846 204.35 167.405Z" fill="#65617D"/>
<path opacity="0.1" d="M99.5893 165.288V262.4H99.5625C99.0033 262.393 98.4689 262.168 98.0735 261.772C97.678 261.377 97.4528 260.842 97.4458 260.283V167.405C97.4528 166.846 97.678 166.311 98.0735 165.916C98.4689 165.52 99.0033 165.295 99.5625 165.288H99.5893Z" fill="black"/>
<path d="M104.278 171.044H199.393V250.497L104.278 252.641V171.044Z" fill="#D4DFEC"/>
<path opacity="0.1" d="M397.569 164.216H387.388V173.552H397.569V164.216Z" fill="black"/>
<path opacity="0.1" d="M389.087 259.206V262.641L363.81 261.966V259.206H389.087Z" fill="black"/>
<path d="M422.444 167.405V260.283C422.437 260.847 422.208 261.385 421.807 261.782C421.406 262.178 420.864 262.4 420.3 262.4L317.582 259.667C317.032 259.646 316.511 259.415 316.127 259.021C315.743 258.627 315.525 258.1 315.519 257.55V167.405C315.526 166.846 315.751 166.311 316.146 165.916C316.542 165.52 317.076 165.295 317.635 165.288H420.306C420.869 165.29 421.409 165.512 421.809 165.908C422.209 166.305 422.437 166.842 422.444 167.405Z" fill="#65617D"/>
<path opacity="0.1" d="M422.444 167.405V260.283C422.437 260.847 422.208 261.385 421.807 261.782C421.406 262.178 420.864 262.4 420.301 262.4V165.288C420.864 165.288 421.406 165.51 421.807 165.907C422.208 166.303 422.437 166.841 422.444 167.405Z" fill="black"/>
<path d="M415.612 171.044H320.497V250.497L415.612 252.641V171.044Z" fill="#D4DFEC"/>
<path d="M312.861 167.405V257.55C312.854 258.1 312.637 258.627 312.253 259.021C311.869 259.415 311.348 259.646 310.798 259.667L208.101 262.4C207.537 262.4 206.996 262.178 206.594 261.782C206.193 261.385 205.964 260.847 205.957 260.283V167.405C205.964 166.846 206.189 166.311 206.585 165.916C206.98 165.52 207.515 165.295 208.074 165.288H310.744C311.303 165.295 311.838 165.52 312.233 165.916C312.629 166.311 312.854 166.846 312.861 167.405Z" fill="#65617D"/>
<path d="M212.789 171.044H307.904V250.497L212.789 252.641V171.044Z" fill="#D4DFEC"/>
<path opacity="0.1" d="M462.499 286.003V292.97L381.092 293.72L380.224 293.736L349.283 294.02L348.544 294.031L339.139 294.111H338.861L281.535 294.642L187.433 295.515H187.352L163.426 295.741L163.169 295.746L56.8546 296.721V288.682L165.371 287.969H165.628L187.593 287.819H187.695L339.386 286.817H339.541L339.632 286.812H339.884L342.451 286.796H343.233L383.15 286.528L385.507 286.517L386.032 286.512L462.499 286.003Z" fill="black"/>
<path d="M261.102 173.37C276.293 173.37 288.608 161.054 288.608 145.861C288.608 130.667 276.293 118.351 261.102 118.351C245.911 118.351 233.597 130.667 233.597 145.861C233.597 161.054 245.911 173.37 261.102 173.37Z" fill="#FBBEBE"/>
<path d="M288.613 202.134C288.613 202.134 235.295 208.565 240.386 202.134C242.229 199.808 242.739 192.916 242.637 185.064C242.605 182.679 242.519 180.209 242.396 177.749C241.806 165.958 240.386 154.436 240.386 154.436C240.386 154.436 287.006 132.462 281.647 149.88C279.504 156.917 280.206 166.8 281.835 176.077C282.312 178.783 282.864 181.436 283.442 183.955C284.855 190.099 286.581 196.166 288.613 202.134Z" fill="#FBBEBE"/>
<path opacity="0.1" d="M288.613 202.134C288.613 202.134 235.295 208.565 240.386 202.134C242.229 199.808 242.739 192.916 242.637 185.064C250.766 181.591 261.108 184.18 261.108 184.18C271.996 182.009 278.979 182.433 283.442 183.955C284.855 190.099 286.581 196.166 288.613 202.134Z" fill="black"/>
<path d="M187.411 296.121V295.671L281.519 294.647L338.855 294.111H339.016L338.957 294.904L339.038 294.111H339.139V294.02L339.873 286.812L340.152 284.084L340.238 283.232L340.313 282.519L343.624 271.473L346.936 260.444L349.723 251.156L353.977 236.964C353.977 236.964 351.566 231.337 350.226 229.729C348.887 228.121 347.547 217.135 347.547 217.135C347.547 217.135 336.112 206.239 331.112 204.985C329.017 204.449 324.88 203.736 320.486 202.841C318.841 202.509 317.153 202.155 315.529 201.769C314.613 201.56 313.713 201.341 312.85 201.121C311.171 200.701 309.516 200.19 307.893 199.588C307.043 199.279 306.233 198.867 305.482 198.361C301.544 195.472 291.673 195.145 291.293 195.145C291.292 195.133 291.292 195.12 291.293 195.108V195.06C291.306 194.835 291.306 194.609 291.293 194.384C291.293 194.17 291.293 193.918 291.244 193.634C291.244 193.548 291.244 193.457 291.207 193.366C291.18 193.173 291.148 192.969 291.1 192.755C291.083 192.659 291.062 192.564 291.035 192.471C290.88 191.825 290.656 191.198 290.366 190.601C290.328 190.515 290.28 190.424 290.237 190.338C289.974 189.843 289.669 189.371 289.326 188.928C289.256 188.837 289.181 188.741 289.101 188.65C288.662 188.132 288.174 187.658 287.643 187.235C287.499 187.122 287.349 187.004 287.193 186.897C287.107 186.827 287.015 186.762 286.92 186.704L286.443 186.393L285.998 186.136C285.607 185.922 285.194 185.713 284.744 185.514C284.605 185.45 284.455 185.391 284.305 185.332C284.155 185.273 283.919 185.182 283.721 185.107H283.689L283.287 184.946C282.981 184.845 282.671 184.753 282.344 184.662L281.845 184.534L281.31 184.41L280.774 184.298C280.238 184.191 279.664 184.094 279.064 184.019L278.453 183.944L277.826 183.88L277.178 183.826L276.256 183.773L275.185 183.735C270.458 183.735 265.745 184.236 261.124 185.23C257.914 184.516 254.626 184.213 251.339 184.33H250.873L250.337 184.362H249.994L249.303 184.427C249.072 184.427 248.837 184.475 248.606 184.507C248.376 184.539 248.135 184.566 247.904 184.603L247.55 184.662C247.202 184.721 246.848 184.786 246.479 184.861C246.361 184.882 246.243 184.909 246.125 184.941C245.659 185.043 245.193 185.166 244.732 185.305C244.501 185.37 244.271 185.445 244.041 185.525C243.923 185.557 243.81 185.6 243.698 185.643L243.355 185.766L243.017 185.9L242.615 186.061C242.412 186.147 242.213 186.238 242.015 186.334C241.903 186.383 241.79 186.436 241.683 186.495C241.576 186.554 241.463 186.602 241.361 186.661C240.15 187.288 239.03 188.077 238.034 189.009L237.76 189.271L237.492 189.545C237.401 189.636 237.316 189.732 237.23 189.829C236.881 190.211 236.555 190.613 236.255 191.035C236.169 191.147 236.088 191.26 236.008 191.378C235.668 191.879 235.36 192.402 235.086 192.943C235.017 193.071 234.952 193.205 234.888 193.334C234.451 194.239 234.092 195.181 233.816 196.147C233.716 196.505 233.625 196.862 233.543 197.219C233.543 197.219 222.199 202.225 212.789 205.848C210.287 206.813 207.929 207.686 205.957 208.345C205.384 208.538 204.848 208.715 204.35 208.881C203.268 209.272 202.144 209.531 201 209.653C200.462 209.662 199.924 209.712 199.393 209.803C195.069 210.505 187.658 213.555 186.848 216.615C186.783 216.859 186.765 217.114 186.795 217.365C186.795 217.365 186.795 217.403 186.795 217.424C187.331 221.176 183.58 220.64 183.58 220.64C183.58 220.64 182.24 230.555 180.365 233.234C179.009 235.164 178.082 239.467 177.964 242.715C177.897 243.727 177.976 244.743 178.2 245.732C178.2 245.759 178.2 245.786 178.2 245.807C178.414 246.526 177.9 248.487 177.026 251.001C176.078 253.761 174.695 257.191 173.366 260.428C171.362 265.315 169.476 269.753 169.358 270.728C169.31 271.163 169.17 271.94 168.978 272.942C168.195 277.026 166.459 284.802 165.602 287.948C164.964 290.295 164.037 293.511 163.399 295.719C163.399 295.783 163.362 295.848 163.346 295.907L187.368 295.671V296.121H187.443H187.411Z" fill="#FFC25C"/>
<path opacity="0.1" d="M196.178 232.95C196.178 232.95 226.722 248.76 237.707 246.885L196.178 232.95Z" fill="black"/>
<path opacity="0.1" d="M258.337 226.519C258.337 226.519 288.077 236.166 297.991 237.506C307.904 238.846 258.337 226.519 258.337 226.519Z" fill="black"/>
<path opacity="0.1" d="M291.325 195.478C275.785 198.339 246.527 197.723 233.881 197.289C238.516 180.675 261.118 186.324 261.118 186.324C289.096 180.739 291.239 192.326 291.325 195.478Z" fill="black"/>
<path d="M291.325 194.406C275.785 197.268 246.527 196.651 233.881 196.217C238.516 179.603 261.118 185.252 261.118 185.252C289.096 179.667 291.239 191.254 291.325 194.406Z" fill="#FFC25C"/>
<path d="M373.815 267.652C373.815 267.652 392.12 264.838 392.479 272.878C392.838 280.917 383.144 286.533 383.144 286.533L373.815 267.652Z" fill="#FBBEBE"/>
<path opacity="0.1" d="M281.835 176.077C281.047 176.429 280.243 176.74 279.423 177.009C273.647 179.003 267.822 181.013 261.74 181.741C255.658 182.47 249.276 181.827 243.971 178.794C243.414 178.479 242.877 178.13 242.363 177.749C241.774 165.958 240.354 154.436 240.354 154.436C240.354 154.436 286.974 132.462 281.615 149.88C279.482 156.917 280.206 166.8 281.835 176.077Z" fill="black"/>
<path d="M253.557 102.862C252.793 103.064 251.991 103.085 251.217 102.922C250.443 102.759 249.718 102.417 249.099 101.924L250.214 103.473C249.557 103.549 248.891 103.48 248.264 103.272C247.636 103.064 247.062 102.721 246.581 102.267C246.48 103.654 246.537 105.047 246.752 106.421C244.908 106.51 243.092 105.94 241.629 104.813C241.601 105.297 241.721 105.777 241.974 106.19C242.227 106.603 242.6 106.929 243.044 107.123C241.191 106.902 239.321 107.362 237.783 108.418C236.245 109.474 235.144 111.054 234.685 112.863L237.482 113.12C235.283 113.59 233.31 114.794 231.887 116.534C231.03 117.606 230.376 118.978 230.751 120.286C231.126 121.593 232.938 122.429 233.924 121.497C232.521 123.171 231.502 125.132 230.937 127.242C230.372 129.352 230.276 131.56 230.655 133.711C230.909 134.627 230.993 135.583 230.901 136.53C230.725 137.414 230.167 138.181 229.889 139.043C229.353 140.608 229.862 142.307 230.339 143.867L232.852 152.131C233.763 155.116 234.668 158.107 235.858 160.995C236.7 162.822 237.417 164.704 238.002 166.628C238.677 169.222 238.703 172.062 240.145 174.329C241.133 175.756 242.453 176.921 243.992 177.722C249.292 180.755 255.696 181.398 261.761 180.67C267.827 179.941 273.647 177.931 279.418 175.937C280.7 175.551 281.931 175.011 283.083 174.329C287.075 171.714 287.965 166.365 288.71 161.655C289.54 156.402 290.65 151.161 292.616 146.22C293.784 143.277 295.295 140.292 295.038 137.141C294.711 132.955 291.4 129.563 290.58 125.447C290.305 124.071 290.318 122.653 290.617 121.282C290.872 120.466 291.014 119.618 291.041 118.764C290.95 117.038 289.535 115.709 288.206 114.599C285.323 112.191 282.347 109.915 279.279 107.772C279.123 106.7 280.581 106.239 281.24 105.392C282.172 104.197 281.208 102.3 279.793 101.742C278.378 101.185 276.792 101.549 275.319 101.919C275.415 101.165 275.265 100.399 274.891 99.7372C274.517 99.0749 273.94 98.551 273.244 98.2433C272.549 97.9356 271.773 97.8606 271.032 98.0295C270.29 98.1983 269.623 98.602 269.13 99.1804C268.738 98.283 268.113 97.5071 267.319 96.9339C266.526 96.3607 265.592 96.0112 264.618 95.922C261.065 95.6433 260.995 98.3605 258.723 99.8557C256.451 101.351 254.576 99.3787 252.829 97.9424C252.508 98.7543 252.406 99.6364 252.534 100.5C252.662 101.364 253.015 102.178 253.557 102.862Z" fill="#3F3D56"/>
<path d="M387.388 283.73C387.388 283.73 386.911 284.866 386.032 286.512C384.703 289.043 383.085 291.412 381.21 293.57L381.065 293.725H380.197L349.256 294.009H348.517L348.426 293.902L342.424 286.78L340.163 284.095L340.072 283.982L339.879 283.757L339.772 283.628L339.632 283.462L335.233 278.242L336.841 271.543L339.579 260.256L339.648 259.983L340.184 257.839L340.565 256.231L341.84 250.99L346.213 232.956L353.983 236.975L362.176 251.445L366.575 259.216H368.987C369.442 259.216 370.487 260.095 371.537 261.108C371.912 261.467 372.288 261.848 372.609 262.18C373.563 263.166 374.318 264.013 374.318 264.013C374.318 264.013 378.225 264.099 379.275 267.175C379.329 267.324 379.374 267.476 379.409 267.631C379.758 268.84 380.211 270.016 380.765 271.146C381.456 272.652 382.324 274.362 383.203 276.072C384.837 279.207 386.499 282.192 387.109 283.275L387.184 283.409L387.388 283.73Z" fill="#FFC25C"/>
<path opacity="0.1" d="M341.358 259.533L341.304 260.299V260.353L341.213 261.585L340.501 271.505L339.638 283.457L339.391 286.823L338.855 294.026V294.117L281.519 294.653L187.427 295.671V296.121H187.352V295.671V295.521L187.593 287.825L188.054 272.786L188.451 260.036L188.488 258.766C188.512 258 188.691 257.246 189.016 256.551C189.34 255.856 189.803 255.234 190.376 254.724C190.948 254.214 191.619 253.826 192.347 253.584C193.074 253.342 193.844 253.251 194.608 253.316C197.137 253.53 200.422 253.793 204.35 254.071L205.957 254.189C228.64 255.765 270.56 257.802 312.861 255.261C313.75 255.213 314.645 255.159 315.54 255.095C322.099 254.682 328.653 254.152 335.142 253.487C335.962 253.401 336.791 253.496 337.571 253.766C338.351 254.035 339.062 254.472 339.655 255.045C340.247 255.619 340.707 256.316 341.001 257.087C341.295 257.857 341.417 258.683 341.358 259.506V259.533Z" fill="black"/>
<path d="M187.411 296.121V295.671L281.519 294.647L338.855 294.111H339.016V294.02L339.552 286.817L339.782 283.602L340.661 271.484L341.352 261.891V261.655C341.384 261.213 341.365 260.769 341.294 260.331C341.297 260.313 341.297 260.295 341.294 260.278C341.146 259.373 340.778 258.519 340.222 257.791C339.632 257.034 338.859 256.44 337.976 256.065C337.092 255.69 336.128 255.546 335.174 255.647C328.685 256.312 322.131 256.842 315.572 257.255C314.677 257.319 313.783 257.373 312.893 257.421C270.592 259.935 228.672 257.898 205.989 256.349L204.382 256.231C200.454 255.953 197.169 255.695 194.64 255.476C193.248 255.358 191.863 255.76 190.751 256.605C189.638 257.449 188.878 258.675 188.617 260.047C188.563 260.337 188.53 260.631 188.52 260.926L188.156 272.802L187.658 287.846L187.422 295.542V295.692V296.143L187.411 296.121Z" fill="#3F3D56"/>
<path opacity="0.1" d="M341.519 263.29L340.86 271.505L339.879 283.752L339.632 286.817L339.097 293.683L339.064 294.026V294.117L338.984 294.91L339.043 294.117H338.888L281.551 294.653L187.427 295.671V295.521L187.69 287.825L188.226 272.786L188.569 262.791C188.585 262.223 188.744 261.667 189.031 261.176C189.317 260.684 189.722 260.272 190.208 259.978C190.815 259.606 191.525 259.437 192.234 259.495C193.359 259.586 194.742 259.693 196.355 259.811C198.975 260.004 202.206 260.229 205.968 260.465C212.934 260.905 221.674 261.376 231.689 261.762C259.554 262.834 297.171 263.193 332.902 260.063C334.51 259.924 336.171 259.768 337.794 259.613C338.437 259.549 339.085 259.672 339.659 259.967C339.822 260.048 339.976 260.145 340.12 260.256C340.587 260.594 340.956 261.049 341.192 261.575C341.246 261.679 341.291 261.789 341.326 261.902C341.487 262.346 341.552 262.818 341.519 263.29Z" fill="black"/>
<path opacity="0.1" d="M159.739 270.627V272.336C159.74 272.958 159.564 273.567 159.232 274.092C158.9 274.618 158.425 275.039 157.864 275.305L136.376 275.718C135.805 275.456 135.321 275.035 134.981 274.506C134.642 273.977 134.462 273.361 134.463 272.733V271.125L159.739 270.627Z" fill="black"/>
<path d="M160.007 276.313L132.009 276.849V272.202L160.007 271.666V276.313Z" fill="#3F3D56"/>
<path opacity="0.1" d="M160.007 276.313L132.009 276.849V272.202L160.007 271.666V276.313Z" fill="black"/>
<path d="M161.079 276.313L133.08 276.849V272.202L161.079 271.666V276.313Z" fill="#3F3D56"/>
<g opacity="0.1">
<path opacity="0.1" d="M253.777 101.104C253.254 100.424 252.906 99.6252 252.764 98.7785C252.635 99.6062 252.713 100.453 252.989 101.244C253.255 101.219 253.519 101.173 253.777 101.104Z" fill="black"/>
<path opacity="0.1" d="M246.972 104.663C246.871 104.006 246.805 103.344 246.773 102.68C246.773 103.339 246.773 104.004 246.773 104.668L246.972 104.663Z" fill="black"/>
<path opacity="0.1" d="M290.644 122.547C290.674 122.07 290.738 121.595 290.837 121.127C291.091 120.312 291.235 119.467 291.266 118.614C291.254 118.422 291.225 118.232 291.18 118.045C291.089 118.538 290.944 119.032 290.837 119.519C290.623 120.513 290.558 121.534 290.644 122.547Z" fill="black"/>
<path opacity="0.1" d="M279.498 105.987L280.082 106.41C280.575 106.054 281.036 105.656 281.46 105.22C281.661 104.942 281.786 104.615 281.822 104.272C281.858 103.93 281.803 103.584 281.663 103.27C281.61 103.392 281.541 103.507 281.46 103.613C280.801 104.459 279.343 104.926 279.498 105.987Z" fill="black"/>
<path opacity="0.1" d="M235.467 111.143C235.271 111.533 235.115 111.943 235.001 112.364C235.839 111.897 236.742 111.555 237.68 111.352L235.467 111.143Z" fill="black"/>
<path opacity="0.1" d="M242.856 105.312C242.504 105.118 242.168 104.897 241.849 104.652C241.835 104.864 241.852 105.077 241.897 105.285C242.217 105.269 242.538 105.278 242.856 105.312Z" fill="black"/>
<path opacity="0.1" d="M295.247 136.889C295.028 139.488 293.816 141.991 292.836 144.456C290.869 149.398 289.76 154.639 288.929 159.897C288.185 164.608 287.322 169.956 283.303 172.566C282.155 173.252 280.925 173.792 279.643 174.174C273.866 176.173 268.042 178.177 261.96 178.906C255.878 179.635 249.496 178.997 244.191 175.964C242.653 175.161 241.332 173.997 240.343 172.572C238.912 170.305 238.886 167.464 238.2 164.87C237.615 162.944 236.899 161.06 236.056 159.232C234.872 156.349 233.961 153.337 233.056 150.373C232.216 147.618 231.378 144.862 230.542 142.104C230.267 141.274 230.063 140.422 229.931 139.558C229.722 140.93 230.13 142.366 230.542 143.711C231.378 146.473 232.216 149.23 233.056 151.981C233.961 154.966 234.872 157.957 236.056 160.84C236.899 162.668 237.615 164.552 238.2 166.478C238.875 169.072 238.902 171.912 240.343 174.179C241.332 175.605 242.653 176.769 244.191 177.572C249.496 180.605 255.894 181.243 261.96 180.514C268.026 179.785 273.845 177.781 279.643 175.782C280.925 175.4 282.155 174.86 283.303 174.174C287.295 171.564 288.185 166.215 288.929 161.505C289.76 156.247 290.869 151.006 292.836 146.064C294.004 143.127 295.515 140.142 295.258 136.985C295.258 136.953 295.247 136.921 295.247 136.889Z" fill="black"/>
<path opacity="0.1" d="M231.11 134.815C231.11 134.815 231.11 134.777 231.11 134.756C231.207 133.811 231.123 132.856 230.864 131.942C230.757 131.354 230.687 130.76 230.655 130.163C230.593 131.296 230.663 132.433 230.864 133.55C230.95 133.968 231.046 134.391 231.11 134.815Z" fill="black"/>
<path opacity="0.1" d="M232.745 121.706C233.157 121.013 233.625 120.356 234.143 119.739C233.163 120.677 231.351 119.841 230.971 118.538C230.831 119.065 230.831 119.62 230.971 120.146C231.103 120.54 231.337 120.891 231.648 121.165C231.96 121.439 232.338 121.625 232.745 121.706Z" fill="black"/>
</g>
<path opacity="0.1" d="M366.581 259.211C366.581 259.211 368.279 265.374 366.581 270.734C364.882 276.093 366.581 259.211 366.581 259.211Z" fill="black"/>
<path opacity="0.1" d="M373.815 265.498C373.815 265.498 374.527 273.322 372.92 274.71C371.312 276.098 373.815 265.498 373.815 265.498Z" fill="black"/>
<path d="M106.63 183.751L161.079 183.215" stroke="#FFC25C" stroke-width="2" stroke-miterlimit="10"/>
<path d="M106.63 190.434L161.079 189.904" stroke="#FFC25C" stroke-width="2" stroke-miterlimit="10"/>
<path d="M106.63 197.123L161.079 196.587" stroke="#FFC25C" stroke-width="2" stroke-miterlimit="10"/>
</g>
<defs>
<clipPath id="clip0">
<rect width="558" height="297" fill="white"/>
</clipPath>
</defs>
</svg>
