<svg width="597" height="481" viewBox="0 0 597 481" fill="none" xmlns="http://www.w3.org/2000/svg">
<path d="M23.1521 28.4742C53.4985 1.32216 221.152 61.5984 285.652 16.7862C350.152 -28.026 513.652 27.9746 538.652 55.9746C563.652 83.9746 539.652 186.474 580.652 241.724C621.652 296.974 561.652 474 536.152 460C511.401 446.411 326.961 477.573 316.148 479.415C315.797 479.475 315.516 479.509 315.16 479.528C309.114 479.861 247.786 482.759 157.652 469.035C62.6522 454.57 5.19881 451.622 23.1521 426.474C58.1521 377.448 -43.3479 87.9742 23.1521 28.4742Z" fill="#FFC25C" fill-opacity="0.3"/>
<g clip-path="url(#clip0)">
<path d="M96.0403 196.33L110.533 225.002L153.869 244.689C158.496 252.504 173.202 253.102 174.272 248.048C175.471 242.378 156.414 233.252 156.414 233.252L120.167 208.753L116.996 187.663L96.0403 196.33Z" fill="#FFB8B8"/>
<path d="M97.75 388.742L95.0773 410.109L110.58 411.178L112.183 388.742H97.75Z" fill="#FFB8B8"/>
<path d="M99.8884 406.905C98.5025 405.44 97.2241 403.878 96.063 402.23C93.8413 399.158 91.87 414.917 91.87 414.917C91.87 414.917 89.7317 421.328 90.2663 424.533C90.8008 427.738 103.096 427.738 105.234 427.204C107.372 426.67 118.064 427.204 118.064 427.204H134.1C147.999 420.794 134.1 416.52 134.1 416.52C129.824 415.986 115.391 402.631 115.391 402.631L112.183 396.755C110.045 396.221 107.907 404.234 107.907 404.234L99.8884 406.905Z" fill="#2F2E41"/>
<path d="M57.6582 389.009L54.9847 410.377L70.4873 411.445L72.0913 389.009H57.6582Z" fill="#FFB8B8"/>
<path d="M59.7962 407.172C58.4104 405.707 57.1319 404.145 55.9709 402.497C53.7492 399.425 51.7778 415.185 51.7778 415.185C51.7778 415.185 49.6395 421.061 50.1741 424.266C50.7087 427.471 63.0036 427.471 65.1419 426.937C67.2801 426.402 77.9713 427.471 77.9713 427.471H94.0082C107.907 421.061 94.0082 416.787 94.0082 416.787C89.7317 416.253 75.2985 402.898 75.2985 402.898L72.0911 397.022C69.9529 396.488 67.8147 404.501 67.8147 404.501L59.7962 407.172Z" fill="#2F2E41"/>
<path d="M75.2985 251.189C73.1602 253.86 74.2294 262.942 74.2294 262.942C74.2294 262.942 70.4874 292.322 72.0911 294.993C73.6948 297.664 71.022 299.8 69.4183 303.54C67.8146 307.279 66.2109 316.36 66.2109 316.36C57.1233 323.839 57.6579 358.027 57.6579 358.027L54.4505 388.475C55.5196 391.68 70.4874 392.215 72.6257 391.68C74.7639 391.146 81.1786 343.07 81.1786 343.07L95.6119 315.826C95.6119 315.826 94.5427 388.475 94.5427 391.68C94.5427 394.886 108.976 393.283 112.183 393.283C115.391 393.283 115.391 339.864 115.391 339.864L118.598 325.976L135.704 262.407V254.929L133.031 251.19C133.031 251.19 77.4368 248.519 75.2985 251.189Z" fill="#2F2E41"/>
<path d="M98.8192 129.929C89.6671 129.929 82.2478 122.515 82.2478 113.369C82.2478 104.224 89.6671 96.8097 98.8192 96.8097C107.971 96.8097 115.391 104.224 115.391 113.369C115.391 122.515 107.971 129.929 98.8192 129.929Z" fill="#FFB8B8"/>
<path d="M107.105 121.115C103.746 128.59 105.735 139.03 112.451 150.495L85.1879 137.675L89.4644 133.936L88.3952 123.252L107.105 121.115Z" fill="#FFB8B8"/>
<path d="M107.105 138.209C110.675 140.33 112.811 144.227 114.037 148.193C116.306 155.534 117.673 163.125 118.105 170.797L119.4 193.765L135.437 254.662C121.538 266.414 113.52 263.743 94.81 254.128C76.1003 244.512 73.9621 257.333 73.9621 257.333C73.9621 257.333 72.3584 256.798 73.9621 255.196C75.5658 253.593 73.9621 255.196 72.3584 253.593C70.7547 251.991 72.3584 253.593 72.893 251.991C73.4275 250.388 72.893 251.457 72.3584 250.922C71.8238 250.388 74.4967 245.581 74.4967 245.581L70.2201 205.517L64.8745 148.893C71.2893 140.88 89.4644 133.936 89.4644 133.936L106.036 145.688C111.381 147.824 107.105 139.277 107.105 139.277V138.209Z" fill="#FFC25C"/>
<path d="M56.0542 182.814L53.916 214.865L81.1787 253.86C81.1787 262.942 85.9897 265.078 85.9897 265.078C87.812 262.172 89.4199 259.137 90.8007 255.997C93.4736 250.121 89.1971 245.313 89.1971 245.313L70.4874 205.784L78.5059 186.019L56.0542 182.814Z" fill="#FFB8B8"/>
<path d="M65.1418 149.16C56.0542 152.365 54.4505 187.087 54.4505 187.087C65.1418 181.211 77.9714 190.826 77.9714 190.826C77.9714 190.826 80.6441 181.745 83.8515 169.993C84.82 166.688 84.9357 163.191 84.188 159.828C83.4403 156.466 81.8534 153.347 79.575 150.763C79.575 150.763 74.2294 145.955 65.1418 149.16Z" fill="#FFC25C"/>
<path d="M83.5842 118.444C85.6938 116.758 88.5718 119.823 88.5718 119.823L90.2595 104.645C90.2595 104.645 100.808 105.91 107.558 104.223C114.309 102.537 115.364 110.337 115.364 110.337C115.712 107.187 115.783 104.012 115.575 100.85C115.153 97.0555 109.668 93.2608 99.9638 90.7311C90.2595 88.2013 85.1964 99.1636 85.1964 99.1636C78.4456 102.537 81.4746 120.131 83.5842 118.444Z" fill="#2F2E41"/>
<path d="M541.931 341.339C540.109 348.566 524.574 364.82 508.543 380.082C533.264 319.066 519.177 252.289 519.177 252.289C523.767 278.515 460.86 410.495 460.86 410.495L475.188 418.938L480.028 425.744C528.549 403.475 541.931 341.339 541.931 341.339Z" fill="#E6E6E6"/>
<path d="M151.167 206.037H353.82V246.02H151.167V206.037Z" fill="#E6E6E6"/>
<path d="M151.167 142.86H353.82V182.843H151.167V142.86Z" fill="#E6E6E6"/>
<path d="M151.167 79.4746H353.82V119.457H151.167V79.4746Z" fill="#E6E6E6"/>
<path d="M349.5 115.14H155.487V83.7919H349.5V115.14Z" fill="white"/>
<path d="M349.5 178.665H155.487V147.316H349.5V178.665Z" fill="white"/>
<path d="M349.5 241.703H155.487V210.354H349.5V241.703Z" fill="white"/>
<path d="M332.516 111.149C325.915 111.149 320.564 105.802 320.564 99.2063C320.564 92.6104 325.915 87.2634 332.516 87.2634C339.116 87.2634 344.467 92.6104 344.467 99.2063C344.467 105.802 339.116 111.149 332.516 111.149Z" fill="#FFC25C"/>
<path d="M185.982 94.5331H303.937V97.1294H185.982V94.5331Z" fill="#FFC25C"/>
<path d="M185.982 101.283H303.937V103.88H185.982V101.283Z" fill="#FFC25C"/>
<path d="M332.516 175.054C325.915 175.054 320.564 169.707 320.564 163.111C320.564 156.515 325.915 151.168 332.516 151.168C339.116 151.168 344.467 156.515 344.467 163.111C344.467 169.707 339.116 175.054 332.516 175.054Z" fill="#CCCCCC"/>
<path d="M185.982 158.438H303.937V161.034H185.982V158.438Z" fill="#CCCCCC"/>
<path d="M185.982 165.188H303.937V167.784H185.982V165.188Z" fill="#CCCCCC"/>
<path d="M332.516 238.231C325.915 238.231 320.564 232.884 320.564 226.288C320.564 219.692 325.915 214.345 332.516 214.345C339.116 214.345 344.467 219.692 344.467 226.288C344.467 232.884 339.116 238.231 332.516 238.231Z" fill="#CCCCCC"/>
<path d="M185.982 221.615H303.937V224.211H185.982V221.615Z" fill="#CCCCCC"/>
<path d="M185.982 228.365H303.937V230.961H185.982V228.365Z" fill="#CCCCCC"/>
<path d="M475.946 194.808C475.946 194.808 478.74 212.36 467.164 210.764C467.164 210.764 421.259 200.393 418.864 202.786C416.469 205.18 401.579 205.994 402.356 195.904C403.135 185.78 418.066 191.617 418.066 191.617C418.066 191.617 441.218 194.808 446.008 192.415C450.798 190.022 464.37 190.819 464.37 190.819L475.946 194.808Z" fill="#A0616A"/>
<path d="M440.915 252.044L447.28 312.395C447.28 312.395 449.276 336.328 455.263 341.514C455.263 341.514 455.263 349.093 457.259 351.486L460.053 382.998C460.053 382.998 456.062 394.566 456.461 396.561C456.86 398.555 454.864 404.937 455.263 405.735C455.663 406.533 474.424 405.735 474.424 405.735L470.432 341.514L458.058 252.162L440.915 252.044Z" fill="#2F2E41"/>
<path d="M475.886 402.473C475.886 402.473 484.257 423.568 479.89 426.114C475.522 428.66 429.661 426.842 429.661 426.842C429.661 426.842 422.018 422.113 430.753 418.84C430.753 418.84 438.033 418.476 442.764 415.566C447.496 412.657 452.956 407.201 452.956 407.201C452.956 407.201 453.32 399.199 456.231 401.018C457.103 401.591 457.844 402.341 458.408 403.218C458.972 404.095 459.347 405.08 459.507 406.11L475.886 402.473Z" fill="#2F2E41"/>
<path d="M488.794 399.612C488.794 399.612 497.975 422.748 493.185 425.54C488.395 428.332 438.099 426.338 438.099 426.338C438.099 426.338 429.716 421.152 439.296 417.562C439.296 417.562 447.28 417.163 452.469 413.972C457.658 410.781 463.646 404.798 463.646 404.798C463.646 404.798 464.045 396.022 467.238 398.017C468.194 398.646 469.007 399.467 469.626 400.429C470.244 401.391 470.655 402.471 470.831 403.601L488.794 399.612Z" fill="#2F2E41"/>
<path d="M451.671 251.225C451.671 251.225 456.062 292.311 458.058 301.086C459.312 306.865 460.113 312.734 460.453 318.637C460.453 318.637 460.852 331.402 464.444 334.992C465.495 336.032 466.321 337.277 466.871 338.649C467.42 340.022 467.681 341.492 467.638 342.97C467.638 342.97 471.23 383.258 469.234 388.044C467.239 392.831 464.529 399.05 466.525 402.241C468.521 405.432 491.189 403.202 491.189 400.809C491.189 398.416 491.189 396.421 492.386 395.224C493.584 394.028 492.386 386.449 492.386 386.449C492.386 386.449 497.176 350.948 492.785 340.576C488.395 330.205 486.399 301.884 486.399 301.884C486.399 301.884 489.592 269.574 493.584 264.388C497.576 259.203 492.785 240.854 492.785 240.854L451.671 251.225Z" fill="#2F2E41"/>
<path d="M462.909 123.636C462.445 124.692 461.334 125.281 460.323 125.837C454.462 129.064 449.557 133.742 444.723 138.366C445.93 134.281 445.673 129.905 443.997 125.99C443.42 124.654 442.663 123.219 443.076 121.824C443.483 120.827 444.19 119.981 445.1 119.404C447.072 117.88 449.134 116.474 451.273 115.195C452.768 114.302 455.841 111.923 457.556 112.182C457.646 114.498 457.693 116.568 458.708 118.732C458.948 119.246 462.732 124.04 462.909 123.636Z" fill="#A0616A"/>
<path d="M442.49 128.766C433.451 128.766 426.124 121.443 426.124 112.411C426.124 103.379 433.451 96.0565 442.49 96.0565C451.529 96.0565 458.856 103.379 458.856 112.411C458.856 121.443 451.529 128.766 442.49 128.766Z" fill="#A0616A"/>
<path d="M441.692 151.103C441.692 151.103 438.897 137.142 446.881 132.356C454.864 127.569 464.045 121.984 464.045 121.984C464.045 121.984 466.839 121.586 468.037 127.569C468.037 127.569 490.79 131.957 493.185 153.497C495.58 175.037 491.588 206.549 491.588 206.549C491.588 206.549 495.181 234.073 499.571 248.832C499.571 248.832 503.164 252.023 487.197 247.236C471.23 242.449 443.288 260.798 443.288 260.798C443.288 260.798 440.494 258.006 440.494 256.012C440.494 254.017 434.506 193.386 433.309 187.801C432.111 182.217 438.099 151.901 441.692 151.103Z" fill="#E6E6E6"/>
<path d="M446.347 114.096C445.364 113.551 444.261 113.258 443.137 113.242C442.012 113.225 440.913 112.898 439.962 112.296C438.416 111.11 438.303 108.818 437.172 107.232C435.534 104.936 432.268 104.659 429.449 104.774C427.724 104.844 425.867 104.947 424.415 104.015C422.924 103.058 422.248 101.256 421.746 99.5578C421.151 97.5501 420.767 95.0949 422.24 93.6059C423.263 92.5719 424.877 92.3674 426.014 91.4593C426.628 90.9678 434.757 88.9944 442.389 87.2199C446.188 86.3379 450.179 86.8775 453.607 88.7366C457.035 90.5957 459.662 93.6455 460.992 97.3094C462.754 102.151 464.265 106.701 464.109 107.684C463.363 112.387 459.2 116.125 458.914 120.878C458.64 119.566 458.045 118.341 457.182 117.315C456.318 116.289 455.213 115.493 453.966 114.999C453.654 114.846 453.298 114.803 452.958 114.877C452.545 115.009 452.303 115.422 452.042 115.769C451.358 116.677 449.21 118.055 447.993 117.411C446.903 116.834 447.717 115.024 446.347 114.096Z" fill="#3F3D56"/>
<path d="M438.863 200.08C439.206 200.416 439.402 200.873 439.409 201.352C439.416 201.832 439.233 202.294 438.9 202.64L427.392 214.543C427.225 214.716 427.024 214.854 426.803 214.949C426.582 215.044 426.344 215.094 426.103 215.096C425.862 215.099 425.623 215.053 425.4 214.962C425.177 214.872 424.975 214.737 424.804 214.568L389.687 179.627C389.495 179.436 389.348 179.205 389.257 178.95C389.167 178.695 389.134 178.423 389.162 178.154C389.19 177.885 389.277 177.626 389.418 177.395C389.559 177.164 389.75 176.968 389.977 176.82L403.786 167.832C404.131 167.605 404.544 167.503 404.956 167.544C405.367 167.584 405.752 167.764 406.046 168.055L438.863 200.08Z" fill="#3F3D56"/>
<path d="M389.446 177.351C389.516 177.457 389.596 177.557 389.687 177.647L424.721 213.247C424.892 213.417 425.095 213.551 425.318 213.642C425.541 213.733 425.78 213.778 426.021 213.776C426.261 213.774 426.499 213.724 426.721 213.629C426.942 213.534 427.142 213.395 427.309 213.222L439.065 200.825C439.145 200.741 439.217 200.651 439.28 200.554C439.476 200.89 439.546 201.285 439.476 201.667C439.407 202.05 439.202 202.395 438.9 202.64L427.392 214.543C427.225 214.716 427.024 214.854 426.803 214.949C426.582 215.044 426.344 215.094 426.103 215.096C425.862 215.099 425.623 215.053 425.4 214.962C425.177 214.872 424.975 214.737 424.804 214.567L389.687 179.627C389.391 179.333 389.206 178.946 389.162 178.532C389.118 178.117 389.219 177.7 389.446 177.351H389.446Z" fill="#FFC25C"/>
<path d="M392.698 177.781L394.127 176.871C393.976 177.139 393.921 177.45 393.97 177.753C394.019 178.057 394.169 178.335 394.396 178.542C394.624 178.749 394.914 178.873 395.221 178.894C395.528 178.915 395.833 178.832 396.086 178.657L405.334 172.304C405.544 172.16 405.71 171.959 405.811 171.726C405.913 171.492 405.947 171.235 405.91 170.983C405.872 170.731 405.765 170.494 405.599 170.301C405.434 170.107 405.217 169.963 404.974 169.886L405.71 169.417C405.806 169.356 405.919 169.33 406.032 169.343C406.145 169.355 406.249 169.406 406.329 169.487L437.439 200.037C437.485 200.084 437.522 200.14 437.546 200.201C437.571 200.263 437.583 200.328 437.582 200.394C437.58 200.46 437.566 200.525 437.539 200.586C437.513 200.646 437.474 200.7 437.426 200.746L426.128 211.747C426.034 211.835 425.91 211.883 425.781 211.882C425.652 211.88 425.529 211.828 425.438 211.737L392.614 178.549C392.562 178.497 392.521 178.433 392.497 178.364C392.472 178.294 392.463 178.219 392.471 178.145C392.479 178.072 392.504 178.001 392.543 177.938C392.582 177.875 392.635 177.821 392.698 177.781Z" fill="white"/>
<path d="M428.395 193.292L418.851 202.283L396.152 179.872L407.672 172.379L428.395 193.292Z" fill="#E6E6E6"/>
<path d="M424.527 185.403C424.464 185.463 424.38 185.496 424.293 185.496C424.206 185.496 424.122 185.463 424.059 185.403L422.074 183.419C422.013 183.357 421.978 183.273 421.978 183.186C421.978 183.098 422.013 183.015 422.074 182.953C422.137 182.893 422.221 182.859 422.308 182.859C422.395 182.859 422.479 182.893 422.541 182.953L424.527 184.936C424.588 184.998 424.623 185.082 424.623 185.17C424.623 185.257 424.588 185.341 424.527 185.403Z" fill="#3F3D56"/>
<path d="M427.871 188.745C427.809 188.806 427.725 188.841 427.637 188.841C427.549 188.841 427.466 188.806 427.403 188.745L425.418 186.761C425.357 186.699 425.322 186.615 425.322 186.528C425.323 186.44 425.357 186.357 425.419 186.295C425.481 186.233 425.565 186.198 425.652 186.198C425.74 186.198 425.823 186.233 425.886 186.294L427.871 188.278C427.932 188.34 427.967 188.424 427.967 188.511C427.967 188.599 427.932 188.683 427.871 188.745Z" fill="#3F3D56"/>
<path d="M428.382 203.237C427.151 203.237 426.153 202.24 426.153 201.01C426.153 199.779 427.151 198.782 428.382 198.782C429.614 198.782 430.612 199.779 430.612 201.01C430.612 202.24 429.614 203.237 428.382 203.237Z" fill="#FFC25C"/>
<path d="M487.596 188.599C487.596 188.599 490.39 206.15 478.815 204.555C478.815 204.555 432.91 194.184 430.515 196.577C428.12 198.97 413.23 199.785 414.007 189.695C414.786 179.571 429.716 185.408 429.716 185.408C429.716 185.408 452.868 188.599 457.658 186.206C462.448 183.812 476.02 184.61 476.02 184.61L487.596 188.599Z" fill="#A0616A"/>
<path d="M471.23 133.153C471.23 133.153 489.193 135.148 489.193 161.076V194.184L467.238 185.009C467.238 185.009 458.058 163.469 458.856 157.486C459.654 151.502 459.255 133.951 471.23 133.153Z" fill="#E6E6E6"/>
</g>
<defs>
<clipPath id="clip0">
<rect width="573" height="348" fill="white" transform="matrix(-1 0 0 1 596.152 79.4746)"/>
</clipPath>
</defs>
</svg>
