<svg width="626" height="418" viewBox="0 0 626 418" fill="none" xmlns="http://www.w3.org/2000/svg">
<path d="M107 27.3876C162 -23.5001 552.5 9.77557 567 27.3878C581.5 45 619.988 60.0785 625 137.5C630.922 228.986 574.456 390.229 565.646 414.73C564.938 416.7 563.11 417.887 561.017 417.887H88.1387C-30 409.5 -2.86133 287.5 23.5 235.5C49.8613 183.5 51.9999 78.2754 107 27.3876Z" fill="#FFC25C" fill-opacity="0.3"/>
<path d="M333.719 127.611C356.705 127.611 375.338 108.981 375.338 86.0001C375.338 63.0191 356.705 44.3893 333.719 44.3893C310.733 44.3893 292.1 63.0191 292.1 86.0001C292.1 108.981 310.733 127.611 333.719 127.611Z" fill="#FFB8B8"/>
<path d="M302.655 106.805C302.655 106.805 310.497 165.905 298.433 172.538C286.37 179.172 370.211 179.775 370.211 179.775C370.211 179.775 351.513 128.515 359.957 112.836L302.655 106.805Z" fill="#FFB8B8"/>
<path d="M431.433 180.074L424.46 211.818L409.717 278.98L409.275 282.658L404.187 325.238L400.803 353.526L398.533 372.527C384.735 379.617 374.734 384.512 374.734 384.512C374.734 384.512 373.874 380.2 372.487 374.683C362.804 377.586 344.885 382.401 329.7 383.363C335.229 389.525 337.771 395.314 334.324 399.586C323.921 412.465 280.975 385.485 265.955 375.424C265.605 377.833 265.472 380.268 265.558 382.701L254.064 373.862L255.201 353.526L257.12 319.116L259.531 275.964C258.771 274.116 258.133 272.22 257.623 270.288C254.103 257.772 249.83 232.778 246.553 211.818C243.916 194.95 241.935 180.696 241.516 177.663C241.459 177.267 241.431 177.064 241.431 177.064L305.063 148.952C309.585 159.437 330.702 162.589 330.702 162.589C348.196 161.384 361.909 152.16 361.909 152.16L431.433 180.074Z" fill="#FFC25C"/>
<path d="M379.562 372.453C379.562 372.453 376.868 373.376 372.487 374.683C362.804 377.586 344.885 382.401 329.7 383.363C316.626 384.201 305.578 382.186 303.558 373.659C302.692 369.992 303.92 366.976 306.597 364.497C314.588 357.09 335.461 354.437 352.016 353.526C356.691 353.271 361.015 353.152 364.615 353.107C370.727 353.028 374.734 353.152 374.734 353.152L374.83 353.526L379.562 372.453Z" fill="#A0616A"/>
<path d="M299.096 46.6402L291.314 43.5254C291.314 43.5254 307.585 25.6157 330.223 27.1731L323.856 20.1649C323.856 20.1649 339.419 13.9355 353.568 30.2878C361.006 38.8838 369.611 48.988 374.976 60.3703H383.31L379.831 68.0273L392.005 75.6844L379.51 74.309C380.255 78.5021 380.369 82.7828 379.849 87.0096C379.313 91.2377 377.155 95.0923 373.83 97.7597C373.83 97.7597 364.179 77.7875 364.179 74.6727V82.4596C364.179 82.4596 356.398 75.4515 356.398 70.7794L352.153 76.2301L350.031 67.6646L323.856 76.2301L328.1 69.222L311.829 71.5581L318.196 62.9925C318.196 62.9925 299.803 73.1154 299.096 81.681C298.388 90.2464 293.005 98.3628 293.005 98.3628C293.005 98.3628 278.58 58.3204 299.096 46.6402Z" fill="#2F2E41"/>
<path d="M476.671 326.014C472.432 330.608 461.928 337.529 449.193 345.021C444.456 347.805 439.413 350.674 434.269 353.526C421.993 360.333 409.14 367.078 398.533 372.527C384.735 379.617 374.734 384.512 374.734 384.512C374.734 384.512 373.874 380.2 372.487 374.683C370.631 367.298 367.835 357.752 364.92 353.526C364.818 353.378 364.717 353.243 364.615 353.107C363.766 351.992 362.911 351.341 362.068 351.341L404.187 325.238L422.389 313.955L409.275 282.658L392.828 243.399L402.755 211.818L412.734 180.074H431.433C431.433 180.074 437.625 193.587 445.543 212.43C446.726 215.248 447.948 218.184 449.193 221.217C465.482 260.827 485.789 316.14 476.671 326.014Z" fill="#FFC25C"/>
<path d="M334.324 399.586C323.921 412.465 280.975 385.485 265.955 375.424C262.683 373.234 260.736 371.848 260.736 371.848L274.478 353.525L278.83 347.725C278.83 347.725 282.724 349.791 288.48 353.152C288.69 353.277 288.899 353.401 289.114 353.525C294.078 356.44 300.309 360.248 306.597 364.497C315.273 370.365 324.046 377.059 329.7 383.363C335.229 389.525 337.771 395.314 334.324 399.586Z" fill="#A0616A"/>
<path d="M288.48 353.152C286.944 353.146 285.411 353.271 283.896 353.526C270.884 355.761 267.047 367.536 265.955 375.424C265.605 377.833 265.472 380.268 265.558 382.701L254.064 373.862L249.875 370.643C239.795 367.129 230.813 360.887 223.026 353.526C216.27 347.026 210.209 339.841 204.943 332.085C199.697 324.442 195.021 316.423 190.952 308.093C189.817 305.769 189.206 303.223 189.164 300.637C189.122 298.05 189.65 295.486 190.709 293.126L204.943 261.41L225.748 215.055C225.901 213.952 226.069 212.873 226.252 211.818C230.378 188.166 241.431 177.663 241.431 177.663H249.875L255.524 211.818L262.542 254.252L257.623 270.288L246.259 307.323L257.12 319.116L288.48 353.152Z" fill="#FFC25C"/>
<path d="M298.037 254.286L305.256 262.706C307.938 262.195 310.739 261.594 313.624 260.919L311.55 254.286L316.62 260.199C347.181 252.684 385.061 238.074 385.061 238.074C385.061 238.074 344.166 241.072 313.631 234.402C300.121 231.451 286.221 238.147 280.677 250.813C277.454 258.175 277.96 264.554 289.389 264.554C293.251 264.488 297.102 264.125 300.908 263.47L298.037 254.286Z" fill="#FFC25C"/>
<path d="M462.607 392.683V396.117C462.609 397.06 462.434 397.995 462.092 398.873C461.94 399.265 461.756 399.643 461.543 400.005C460.868 401.137 459.911 402.074 458.765 402.725C457.619 403.376 456.324 403.717 455.006 403.717H202.271C200.954 403.718 199.658 403.376 198.512 402.725C197.366 402.074 196.409 401.137 195.735 400.005C195.521 399.643 195.338 399.265 195.186 398.873C194.843 397.995 194.669 397.06 194.67 396.117V392.683C194.67 391.685 194.867 390.696 195.249 389.774C195.63 388.852 196.19 388.014 196.896 387.309C197.602 386.603 198.44 386.043 199.362 385.661C200.285 385.279 201.273 385.083 202.271 385.083H216.84V383.482C216.84 383.44 216.848 383.399 216.864 383.361C216.879 383.322 216.903 383.287 216.932 383.258C216.962 383.228 216.997 383.205 217.035 383.189C217.074 383.173 217.115 383.165 217.157 383.165H224.758C224.799 383.165 224.84 383.173 224.879 383.189C224.917 383.205 224.952 383.228 224.982 383.258C225.011 383.287 225.035 383.322 225.05 383.361C225.066 383.399 225.075 383.44 225.074 383.482V385.083H229.823V383.482C229.823 383.44 229.831 383.399 229.847 383.361C229.863 383.322 229.886 383.287 229.916 383.258C229.945 383.228 229.98 383.205 230.019 383.189C230.057 383.173 230.098 383.165 230.14 383.165H237.741C237.783 383.165 237.824 383.173 237.862 383.189C237.901 383.205 237.936 383.228 237.965 383.258C237.995 383.287 238.018 383.322 238.034 383.361C238.05 383.399 238.058 383.44 238.058 383.482V385.083H242.812V383.482C242.812 383.44 242.82 383.399 242.836 383.361C242.852 383.322 242.875 383.287 242.905 383.258C242.934 383.228 242.969 383.205 243.008 383.189C243.046 383.173 243.087 383.165 243.129 383.165H250.73C250.772 383.165 250.813 383.173 250.851 383.189C250.89 383.205 250.925 383.228 250.954 383.258C250.984 383.287 251.007 383.322 251.023 383.361C251.039 383.399 251.047 383.44 251.047 383.482V385.083H255.795V383.482C255.795 383.44 255.803 383.399 255.819 383.361C255.835 383.322 255.859 383.287 255.888 383.258C255.917 383.228 255.952 383.205 255.991 383.189C256.029 383.173 256.071 383.165 256.112 383.165H263.713C263.755 383.165 263.796 383.173 263.835 383.189C263.873 383.205 263.908 383.228 263.938 383.258C263.967 383.287 263.99 383.322 264.006 383.361C264.022 383.399 264.03 383.44 264.03 383.482V385.083H268.779V383.482C268.779 383.44 268.787 383.399 268.803 383.361C268.819 383.322 268.842 383.287 268.871 383.258C268.901 383.228 268.936 383.205 268.974 383.189C269.013 383.173 269.054 383.165 269.096 383.165H276.697C276.738 383.165 276.78 383.173 276.818 383.189C276.857 383.205 276.891 383.228 276.921 383.258C276.95 383.287 276.974 383.322 276.99 383.361C277.006 383.399 277.014 383.44 277.014 383.482V385.083H281.768V383.482C281.768 383.44 281.776 383.399 281.792 383.361C281.808 383.322 281.831 383.287 281.86 383.258C281.89 383.228 281.925 383.205 281.963 383.189C282.002 383.173 282.043 383.165 282.085 383.165H289.686C289.727 383.165 289.769 383.173 289.807 383.189C289.846 383.205 289.881 383.228 289.91 383.258C289.939 383.287 289.963 383.322 289.979 383.361C289.995 383.399 290.003 383.44 290.003 383.482V385.083H294.751V383.482C294.751 383.44 294.759 383.399 294.775 383.361C294.791 383.322 294.814 383.287 294.844 383.258C294.873 383.228 294.908 383.205 294.947 383.189C294.985 383.173 295.026 383.165 295.068 383.165H354.608C354.65 383.165 354.691 383.173 354.73 383.189C354.768 383.205 354.803 383.228 354.833 383.258C354.862 383.287 354.885 383.322 354.901 383.361C354.917 383.399 354.925 383.44 354.925 383.482V385.083H359.679V383.482C359.679 383.44 359.687 383.399 359.703 383.361C359.719 383.322 359.743 383.287 359.772 383.258C359.801 383.228 359.836 383.205 359.875 383.189C359.913 383.173 359.955 383.165 359.996 383.165H367.597C367.681 383.166 367.761 383.199 367.821 383.259C367.88 383.318 367.913 383.398 367.914 383.482V385.083H372.663V383.482C372.663 383.44 372.671 383.399 372.687 383.361C372.703 383.322 372.726 383.287 372.755 383.258C372.785 383.228 372.82 383.205 372.858 383.189C372.897 383.173 372.938 383.165 372.98 383.165H380.581C380.622 383.165 380.664 383.173 380.702 383.189C380.741 383.205 380.776 383.228 380.805 383.258C380.834 383.287 380.858 383.322 380.874 383.361C380.89 383.399 380.898 383.44 380.898 383.482V385.083H385.646V383.482C385.646 383.44 385.654 383.399 385.67 383.361C385.686 383.322 385.709 383.287 385.739 383.258C385.768 383.228 385.803 383.205 385.842 383.189C385.88 383.173 385.921 383.165 385.963 383.165H393.564C393.606 383.165 393.647 383.173 393.685 383.189C393.724 383.205 393.759 383.228 393.788 383.258C393.818 383.287 393.841 383.322 393.857 383.361C393.873 383.399 393.881 383.44 393.881 383.482V385.083H398.635V383.482C398.635 383.44 398.643 383.399 398.659 383.361C398.675 383.322 398.698 383.287 398.728 383.258C398.757 383.228 398.792 383.205 398.831 383.189C398.869 383.173 398.911 383.165 398.952 383.165H406.553C406.636 383.166 406.716 383.2 406.774 383.259C406.832 383.319 406.865 383.399 406.864 383.482V385.083H411.619V383.482C411.619 383.44 411.627 383.399 411.643 383.361C411.658 383.322 411.682 383.287 411.711 383.258C411.741 383.228 411.776 383.205 411.814 383.189C411.853 383.173 411.894 383.165 411.936 383.165H419.537C419.578 383.165 419.619 383.173 419.658 383.189C419.696 383.205 419.731 383.228 419.761 383.258C419.79 383.287 419.814 383.322 419.829 383.361C419.845 383.399 419.854 383.44 419.854 383.482V385.083H424.602V383.482C424.602 383.44 424.61 383.399 424.626 383.361C424.642 383.322 424.665 383.287 424.695 383.258C424.724 383.228 424.759 383.205 424.798 383.189C424.836 383.173 424.877 383.165 424.919 383.165H432.52C432.562 383.165 432.603 383.173 432.641 383.189C432.68 383.205 432.715 383.228 432.744 383.258C432.774 383.287 432.797 383.322 432.813 383.361C432.829 383.399 432.837 383.44 432.837 383.482V385.083H455.006C456.004 385.083 456.993 385.279 457.915 385.661C458.837 386.043 459.675 386.603 460.381 387.309C461.087 388.014 461.647 388.852 462.029 389.774C462.411 390.696 462.607 391.685 462.607 392.683Z" fill="#3F3D56"/>
<path d="M536.098 398.873H121.241V400.005H536.098V398.873Z" fill="#3F3D56"/>
<path d="M442.257 248.034H348.055V246.092H305.34V248.034H210.75C209.06 248.034 207.439 248.705 206.244 249.899C205.049 251.094 204.378 252.715 204.378 254.404V383.369C204.378 385.059 205.049 386.679 206.244 387.874C207.439 389.069 209.06 389.74 210.75 389.74H442.257C443.947 389.74 445.568 389.069 446.763 387.874C447.958 386.679 448.629 385.059 448.629 383.369V254.404C448.629 253.568 448.464 252.739 448.144 251.966C447.824 251.193 447.354 250.491 446.763 249.899C446.171 249.308 445.469 248.839 444.696 248.518C443.922 248.198 443.094 248.034 442.257 248.034Z" fill="#3F3D56"/>
<path d="M326.689 307.205C334.503 307.205 340.838 300.871 340.838 293.058C340.838 285.245 334.503 278.912 326.689 278.912C318.875 278.912 312.54 285.245 312.54 293.058C312.54 300.871 318.875 307.205 326.689 307.205Z" stroke="#D0CDE1" stroke-width="2" stroke-miterlimit="10"/>
<path d="M322.161 312.297C329.976 312.297 336.31 305.964 336.31 298.151C336.31 290.338 329.976 284.005 322.161 284.005C314.347 284.005 308.012 290.338 308.012 298.151C308.012 305.964 314.347 312.297 322.161 312.297Z" fill="#D0CDE1"/>
<path d="M148.377 393.156H132.53V409H148.377V393.156Z" fill="#D0CDE1"/>
<path d="M138.758 380.707V399.947H158.001V380.707H138.758ZM157.163 399.109H139.59V381.545H157.163V399.109Z" fill="#3F3D56"/>
<path d="M515.127 393.156H499.28V409H515.127V393.156Z" fill="#D0CDE1"/>
<path d="M505.507 380.707V399.947H524.75V380.707H505.507ZM523.913 399.109H506.339V381.545H523.913V399.109Z" fill="#3F3D56"/>
<path d="M140.53 149.211C165.33 149.211 185.434 129.111 185.434 104.316C185.434 79.5207 165.33 59.4204 140.53 59.4204C115.73 59.4204 95.6252 79.5207 95.6252 104.316C95.6252 129.111 115.73 149.211 140.53 149.211Z" fill="#FFC25C"/>
<path d="M156.178 50.9651C152.112 50.4481 147.997 50.4481 143.931 50.9651C134.873 52.1542 126.347 55.9163 119.363 61.805C112.379 67.6937 107.232 75.4618 104.531 84.1875C103.303 88.1641 102.608 92.2859 102.463 96.4453C102.443 97.0235 102.429 97.6085 102.429 98.1935C102.442 110.818 107.463 122.922 116.392 131.849C125.321 140.776 137.428 145.797 150.055 145.81C151.069 145.81 152.082 145.776 153.082 145.714C155.43 145.567 157.764 145.244 160.063 144.748C171.044 142.388 180.837 136.223 187.713 127.343C194.589 118.464 198.105 107.44 197.64 96.2204C197.175 85.0004 192.759 74.3055 185.173 66.0248C177.586 57.744 167.317 52.4101 156.178 50.9651H156.178ZM164.962 141.987H164.955C161.119 143.295 157.127 144.089 153.082 144.347C152.082 144.415 151.069 144.449 150.055 144.449C137.789 144.434 126.03 139.556 117.357 130.885C108.684 122.213 103.805 110.457 103.79 98.1935C103.79 97.6085 103.803 97.0235 103.824 96.4453C104.291 84.4942 109.365 73.1872 117.982 64.8913C126.599 56.5954 138.092 51.9537 150.055 51.9379C161.016 51.9385 171.62 55.8295 179.979 62.9178C188.338 70.0061 193.909 79.8312 195.699 90.6427C197.489 101.454 195.381 112.55 189.752 121.953C184.123 131.356 175.338 138.455 164.962 141.987H164.962Z" fill="#3F3D56"/>
<path d="M150.735 54.6588H149.374V64.182H150.735V54.6588Z" fill="#3F3D56"/>
<path d="M119.746 66.9288L118.784 67.8908L125.519 74.6247L126.481 73.6627L119.746 66.9288Z" fill="#3F3D56"/>
<path d="M106.511 97.5133V98.8737H116.036V97.5133H106.511Z" fill="#3F3D56"/>
<path d="M118.784 128.496L119.746 129.458L126.481 122.724L125.519 121.762L118.784 128.496Z" fill="#3F3D56"/>
<path d="M173.628 73.6628L174.591 74.6248L181.326 67.8908L180.364 66.9288L173.628 73.6628Z" fill="#3F3D56"/>
<path d="M184.073 97.5133V98.8737H193.598V97.5133H184.073Z" fill="#3F3D56"/>
<path d="M174.591 121.762L173.628 122.724L180.364 129.458L181.326 128.496L174.591 121.762Z" fill="#3F3D56"/>
<path d="M150.735 132.205H149.374V141.728H150.735V132.205Z" fill="#3F3D56"/>
<path d="M152.096 95.4726C151.507 95.031 150.791 94.7924 150.055 94.7924C149.319 94.7924 148.603 95.031 148.014 95.4726C147.611 95.7787 147.279 96.1686 147.041 96.6154C146.739 97.1907 146.609 97.8402 146.665 98.4872C146.721 99.1342 146.961 99.7517 147.357 100.267C147.753 100.781 148.288 101.172 148.899 101.393C149.51 101.613 150.171 101.655 150.805 101.511C151.438 101.368 152.018 101.047 152.474 100.585C152.931 100.123 153.246 99.5398 153.381 98.9047C153.517 98.2696 153.468 97.6089 153.241 97.0007C153.013 96.3925 152.616 95.8623 152.096 95.4726H152.096ZM150.055 100.234C149.514 100.233 148.996 100.017 148.613 99.6347C148.231 99.2524 148.015 98.7342 148.014 98.1935C148.016 97.7808 148.142 97.3782 148.374 97.0371C148.574 96.7484 148.844 96.5161 149.16 96.3625C149.475 96.209 149.825 96.1394 150.175 96.1605C150.525 96.1816 150.864 96.2927 151.159 96.483C151.454 96.6734 151.694 96.9366 151.857 97.2471C152.021 97.5576 152.101 97.905 152.091 98.2556C152.08 98.6063 151.98 98.9483 151.798 99.2486C151.617 99.549 151.361 99.7975 151.056 99.9702C150.75 100.143 150.406 100.234 150.055 100.234V100.234Z" fill="#3F3D56"/>
<path d="M156.178 39.0135H143.931V51.2576H156.178V39.0135Z" fill="#3F3D56"/>
<path d="M150.055 41.0542C159.073 41.0542 166.384 38.4655 166.384 35.2723C166.384 32.079 159.073 29.4903 150.055 29.4903C141.037 29.4903 133.726 32.079 133.726 35.2723C133.726 38.4655 141.037 41.0542 150.055 41.0542Z" fill="#3F3D56"/>
<path d="M152.096 72.3448H148.014V95.4726H152.096V72.3448Z" fill="#3F3D56"/>
<path d="M214.909 143.737H87V145.098H214.909V143.737Z" fill="#3F3D56"/>
<path d="M172.232 358.374C172.76 376.453 162.194 383.078 148.935 383.466C148.627 383.475 148.32 383.48 148.015 383.482C147.4 383.487 146.791 383.477 146.188 383.451C134.196 382.954 124.703 376.589 124.212 359.776C123.704 342.376 145.306 319.768 146.926 318.096L146.929 318.094C146.991 318.031 147.022 317.999 147.022 317.999C147.022 317.999 171.704 340.296 172.232 358.374Z" fill="#D0CDE1"/>
<path d="M147.98 380.726L156.403 368.202L147.997 382.073L148.015 383.482C147.4 383.487 146.791 383.477 146.188 383.451L146.606 365.337L146.594 365.198L146.61 365.171L146.65 363.459L137.425 350.069L146.639 362.178L146.671 362.54L146.987 348.854L139.02 334.972L147.01 346.45L146.926 318.096L146.926 318.002L146.929 318.094L147.458 340.441L154.719 331.364L147.482 342.366L147.64 354.608L154.322 342.66L147.665 356.407L147.753 363.214L157.47 346.572L147.783 365.589L147.98 380.726Z" fill="#3F3D56"/>
<path d="M538.981 358.374C539.509 376.453 528.943 383.078 515.684 383.466C515.376 383.475 515.069 383.48 514.764 383.482C514.149 383.487 513.54 383.477 512.937 383.451C500.945 382.954 491.453 376.589 490.962 359.776C490.453 342.376 512.055 319.768 513.676 318.096L513.678 318.094C513.74 318.031 513.772 317.999 513.772 317.999C513.772 317.999 538.453 340.296 538.981 358.374Z" fill="#D0CDE1"/>
<path d="M514.729 380.726L523.152 368.202L514.746 382.073L514.764 383.482C514.149 383.487 513.54 383.477 512.937 383.451L513.355 365.337L513.343 365.198L513.359 365.171L513.399 363.459L504.175 350.069L513.388 362.178L513.421 362.54L513.736 348.854L505.769 334.972L513.759 346.45L513.676 318.096L513.676 318.002L513.678 318.094L514.207 340.441L521.468 331.364L514.231 342.366L514.39 354.608L521.071 342.66L514.414 356.407L514.502 363.214L524.219 346.572L514.532 365.589L514.729 380.726Z" fill="#3F3D56"/>
</svg>
