<svg width="490" height="338" viewBox="0 0 490 338" fill="none" xmlns="http://www.w3.org/2000/svg">
<g clip-path="url(#clip0)">
<path opacity="0.1" d="M3.76343 177.941C12.4244 163.803 32.0105 166.268 45.8999 173.648C59.7893 181.028 73.6487 192.045 88.9343 189.928C101.823 188.142 112.391 176.911 118.101 163.953C123.81 150.996 125.486 136.386 127.093 122.076C129.112 104.099 131.13 86.1098 133.146 68.1094C133.885 61.5277 134.757 54.5812 138.46 49.3734C143.353 42.5041 152.324 40.3917 159.997 42.4568C167.67 44.5219 174.213 50.0603 179.81 56.2384C197.743 76.022 207.903 102.765 223.579 124.781C226.771 129.263 230.376 133.694 235.145 135.858C242.018 138.971 249.91 136.768 256.625 133.303C278.536 122.016 293.254 98.9826 307.719 77.4903C314.756 67.0447 323.336 55.8734 335.043 54.7357C347.36 53.5121 358.053 64.0007 365.292 75.1075C388.525 110.845 393.504 159.634 421.571 190.804C425.055 194.668 428.9 198.24 433.33 200.64C434.79 201.429 436.313 202.096 437.884 202.636C462.371 211.107 470.534 245.11 452.422 265.271C452.031 265.701 451.631 266.13 451.227 266.559C448.538 269.397 445.492 272.081 441.857 272.926C438.476 273.708 434.984 272.806 431.633 271.832C410.212 265.585 389.049 256.036 366.903 256.5C345.353 256.93 324.912 266.877 303.604 270.458C289.276 272.866 274.699 272.385 260.213 271.866C211.964 270.131 163.726 268.114 115.497 265.812C91.5592 264.713 67.6126 263.666 43.6788 262.442C25.2398 261.485 13.4942 259.377 11.3547 237.992C9.48159 219.264 -7.34208 196.076 3.76343 177.941Z" fill="#FFC25C"/>
<path d="M339.352 338C403.412 338 455.343 330.747 455.343 321.801C455.343 312.855 403.412 305.603 339.352 305.603C275.291 305.603 223.36 312.855 223.36 321.801C223.36 330.747 275.291 338 339.352 338Z" fill="#30374E"/>
<path d="M63.9008 251.919C63.9008 251.919 69.5716 250.631 73.2878 254.439C73.2878 254.439 70.8992 256.586 65.2798 254.207L63.9008 251.919Z" fill="#FFC25C"/>
<path d="M63.2735 251.863C63.2735 251.863 59.9139 256.62 62.0448 261.502C62.0448 261.502 64.949 260.106 64.8674 254.01L63.2735 251.863Z" fill="#FFC25C"/>
<path d="M59.4929 244.693C59.4929 244.693 61.5077 240.336 71.0924 245.603C71.0924 245.603 70.0614 248.514 65.9886 248.557C61.9159 248.6 60.6958 246.836 59.4929 244.693Z" fill="#FFC25C"/>
<path d="M58.8828 244.427C58.8828 244.427 54.0841 244.204 54.3547 255.126C54.3547 255.126 57.4179 255.555 59.3296 251.958C61.2414 248.36 60.2275 246.501 58.8828 244.427Z" fill="#FFC25C"/>
<path d="M55.5404 235.926C55.5404 235.926 57.6885 228.336 67.7715 232.973C67.7715 232.973 66.0101 239.923 56.6875 238.399L55.5404 235.926Z" fill="#FFC25C"/>
<path d="M51.7985 225.047C51.7985 225.047 56.3438 217.216 65.7566 223.57C65.7566 223.57 63.0973 230.813 52.7436 227.67L51.7985 225.047Z" fill="#FFC25C"/>
<path d="M50.0199 214.571C50.0199 214.571 55.4459 207.294 64.7814 213.58C64.7814 213.58 59.6003 219.994 50.1359 216.327L50.0199 214.571Z" fill="#FFC25C"/>
<path d="M48.4131 204.387C48.4131 204.387 53.895 196.805 62.8439 203.035C62.8439 203.035 56.5371 209.831 48.5248 206.07L48.4131 204.387Z" fill="#FFC25C"/>
<path d="M48.3358 195.26C48.3358 195.26 53.9852 185.587 62.3627 191.323C62.3627 191.323 56.1677 199.725 48.4561 197.016L48.3358 195.26Z" fill="#FFC25C"/>
<path d="M49.0963 184.536C49.0963 184.536 55.1108 174.919 63.3122 181.453C63.3122 181.453 55.9658 189.932 49.1908 186.24L49.0963 184.536Z" fill="#FFC25C"/>
<path d="M50.6557 174.893C50.6557 174.893 57.9592 165.744 65.0693 168.723C65.0693 168.723 57.4737 178.426 50.4624 177.207L50.6557 174.893Z" fill="#FFC25C"/>
<path d="M52.8038 165.705C52.8038 165.705 61.1984 154.542 66.7104 157.711C66.7104 157.711 60.5626 166.336 52.2839 167.736L52.8038 165.705Z" fill="#FFC25C"/>
<path d="M56.0774 154.997C56.0774 154.997 63.4539 145.844 69.3954 147.596C69.3954 147.596 63.1875 156.994 55.1752 157.762L56.0774 154.997Z" fill="#FFC25C"/>
<path d="M59.0203 144.99C59.0203 144.99 67.2603 136.145 71.1827 137.339C71.1827 137.339 65.4473 146.939 58.7582 146.849L59.0203 144.99Z" fill="#FFC25C"/>
<path d="M61.9288 135.733C61.9288 135.733 68.8413 125.365 73.0214 125.858C73.0214 125.858 69.0217 134.956 61.9975 136.733L61.9288 135.733Z" fill="#FFC25C"/>
<path d="M64.9318 123.321C64.9318 123.321 71.1139 115.31 74.7312 115.086C74.7312 115.086 70.1301 125.536 64.8201 125.82L64.9318 123.321Z" fill="#FFC25C"/>
<path d="M66.6502 115.074L72.0548 98.8926C72.0548 98.8926 73.3436 113.103 66.0402 118.049L66.6502 115.074Z" fill="#FFC25C"/>
<path d="M68.1066 97.5315C68.1066 97.5315 68.2956 84.3123 67.5352 83.2905C67.5352 83.2905 72.8925 93.9122 68.4546 103.345L68.1066 97.5315Z" fill="#FFC25C"/>
<path d="M55.2655 235.767C55.2655 235.767 48.28 232.066 44.624 242.521C44.624 242.521 50.8534 246.076 56.2235 238.309L55.2655 235.767Z" fill="#FFC25C"/>
<path d="M51.5536 224.639C51.5536 224.639 43.0817 221.441 39.8037 232.316C39.8037 232.316 46.4498 236.244 52.4816 227.267L51.5536 224.639Z" fill="#FFC25C"/>
<path d="M49.6805 215.228C49.6805 215.228 43.3265 208.741 34.919 216.229C34.919 216.229 40.9078 221.891 49.7965 216.997L49.6805 215.228Z" fill="#FFC25C"/>
<path d="M48.2112 204.405C48.2112 204.405 41.767 197.617 33.7289 204.989C33.7289 204.989 40.8863 210.884 48.3358 206.084L48.2112 204.405Z" fill="#FFC25C"/>
<path d="M48.353 195.518C48.353 195.518 43.4726 185.441 34.6784 190.507C34.6784 190.507 40.2032 199.364 48.0995 197.265L48.353 195.518Z" fill="#FFC25C"/>
<path d="M49.5988 184.458C49.5988 184.458 44.7313 174.197 35.8254 179.706C35.8254 179.706 42.1236 188.983 49.2895 186.116L49.5988 184.458Z" fill="#FFC25C"/>
<path d="M51.545 174.884C51.545 174.884 49.122 163.442 41.4276 162.918C41.4276 162.918 43.8678 174.996 50.6686 177.035L51.545 174.884Z" fill="#FFC25C"/>
<path d="M53.0014 165.713C53.0014 165.713 51.4247 151.842 45.0707 151.777C45.0707 151.777 45.9944 162.326 52.4214 167.727L53.0014 165.713Z" fill="#FFC25C"/>
<path d="M56.709 154.555C56.709 154.555 54.0411 143.109 47.9148 142.104C47.9148 142.104 49.4184 153.267 56.3051 157.44L56.709 154.555Z" fill="#FFC25C"/>
<path d="M59.742 145.024C59.742 145.024 58.8828 132.973 55.0592 131.449C55.0592 131.449 53.5083 142.517 58.7754 146.638L59.742 145.024Z" fill="#FFC25C"/>
<path d="M62.2037 135.583C62.2037 135.583 60.8505 123.197 56.9152 121.707C56.9152 121.707 56.2708 131.62 61.6839 136.433L62.2037 135.583Z" fill="#FFC25C"/>
<path d="M65.5332 124.274C65.5332 124.274 64.8286 114.181 61.9459 111.991C61.9459 111.991 59.9783 123.235 64.2444 126.4L65.5332 124.274Z" fill="#FFC25C"/>
<path d="M66.2808 114.597L62.5002 97.9648C62.5002 97.9648 59.8237 111.978 66.6116 117.62L66.2808 114.597Z" fill="#FFC25C"/>
<path d="M65.6922 97.853C65.6922 97.853 58.1181 86.9995 58.1783 85.7373C58.1783 85.7373 59.6991 97.5353 68.6651 102.863L65.6922 97.853Z" fill="#FFC25C"/>
<path d="M66.2808 94.4661C66.2808 94.4661 58.7797 78.8427 55.7853 77.7222C55.7853 77.7222 65.2755 81.7708 66.7877 93.9509L66.2808 94.4661Z" fill="#FFC25C"/>
<path d="M64.7943 125.901L64.3647 125.794C68.5964 107.762 69.1935 96.3935 66.0402 93.7832L66.3323 93.4312C69.6575 96.196 69.1334 107.427 64.7943 125.901Z" fill="#444053"/>
<path d="M52.6448 168.259L51.9789 168.075C52.4472 166.418 52.9542 164.73 53.4955 163.069C58.2212 148.592 62.1479 135.162 64.558 124.884L65.1036 124.562C62.6892 134.866 58.8699 148.789 54.1528 163.279C53.6158 164.936 53.1088 166.611 52.6448 168.259Z" fill="#444053"/>
<path d="M72.8582 264.601C72.7636 264.511 63.3121 255.212 56.0517 238.739C51.7976 229.096 49.0991 218.841 48.0566 208.355C46.7677 195.247 48.5291 180.392 52.3527 166.752L52.9026 167.319C44.3103 197.935 50.2433 223.278 56.8679 238.331C64.0554 254.645 73.3995 263.854 73.494 263.945L72.8582 264.601Z" fill="#444053"/>
<path d="M83.2634 215.568C83.2634 215.568 86.7003 214.782 88.9429 217.092C88.9429 217.092 87.4951 218.38 84.1011 216.95L83.2634 215.568Z" fill="#FFC25C"/>
<path d="M82.8896 215.537C82.8896 215.537 80.8618 218.414 82.1507 221.363C82.1507 221.363 83.9035 220.504 83.8691 216.834L82.8896 215.537Z" fill="#FFC25C"/>
<path d="M80.6041 211.197C80.6041 211.197 81.8199 208.565 87.6068 211.751C87.6068 211.751 86.9838 213.507 84.5222 213.533C82.0605 213.558 81.3387 212.494 80.6041 211.197Z" fill="#FFC25C"/>
<path d="M80.2346 211.038C80.2346 211.038 77.3304 210.905 77.4937 217.504C77.4937 217.504 79.3453 217.762 80.501 215.589C81.6566 213.417 81.0466 212.292 80.2346 211.038Z" fill="#FFC25C"/>
<path d="M78.2025 205.899C78.2025 205.899 79.5215 201.31 85.6048 204.105C85.6048 204.105 84.5436 208.308 78.9071 207.385L78.2025 205.899Z" fill="#FFC25C"/>
<path d="M75.9514 199.322C75.9514 199.322 78.6966 194.599 84.389 198.428C84.389 198.428 82.7779 202.808 76.5227 200.906L75.9514 199.322Z" fill="#FFC25C"/>
<path d="M74.873 192.989C74.873 192.989 78.1553 188.589 83.7961 192.388C83.7961 192.388 80.6685 196.252 74.9461 194.05L74.873 192.989Z" fill="#FFC25C"/>
<path d="M73.9021 186.832C73.9021 186.832 77.2187 182.247 82.6275 186.017C82.6275 186.017 78.8169 190.125 73.9708 187.85L73.9021 186.832Z" fill="#FFC25C"/>
<path d="M73.8591 181.311C73.8591 181.311 77.296 175.468 82.3354 178.933C82.3354 178.933 78.5892 184.012 73.9279 182.367L73.8591 181.311Z" fill="#FFC25C"/>
<path d="M74.306 174.833C74.306 174.833 77.9534 169.015 82.8982 172.952C82.8982 172.952 78.456 178.078 74.3575 175.846L74.306 174.833Z" fill="#FFC25C"/>
<path d="M75.2597 169.002C75.2597 169.002 79.6718 163.472 83.9722 165.276C83.9722 165.276 79.3797 171.14 75.1523 170.402L75.2597 169.002Z" fill="#FFC25C"/>
<path d="M76.5571 163.447C76.5571 163.447 81.6309 156.702 84.9647 158.612C84.9647 158.612 81.2485 163.829 76.2435 164.674L76.5571 163.447Z" fill="#FFC25C"/>
<path d="M78.5376 156.981C78.5376 156.981 82.997 151.447 86.5972 152.507C86.5972 152.507 82.8467 158.187 78.0049 158.651L78.5376 156.981Z" fill="#FFC25C"/>
<path d="M80.3162 150.923C80.3162 150.923 85.2955 145.578 87.6669 146.299C87.6669 146.299 84.2042 152.1 80.1573 152.048L80.3162 150.923Z" fill="#FFC25C"/>
<path d="M82.0734 145.328C82.0734 145.328 86.2535 139.06 88.7796 139.352C88.7796 139.352 86.3652 144.852 82.1163 145.93L82.0734 145.328Z" fill="#FFC25C"/>
<path d="M83.8949 137.824C83.8949 137.824 87.6326 132.981 89.8193 132.844C89.8193 132.844 87.0354 139.164 83.8262 139.322L83.8949 137.824Z" fill="#FFC25C"/>
<path d="M84.9303 132.835L88.1911 123.063C88.1911 123.063 88.9644 131.65 84.5436 134.655L84.9303 132.835Z" fill="#FFC25C"/>
<path d="M85.811 122.231C85.811 122.231 85.9227 114.241 85.463 113.623C85.463 113.623 88.7023 120.041 86.0172 125.747L85.811 122.231Z" fill="#FFC25C"/>
<path d="M78.0436 205.804C78.0436 205.804 73.8248 203.563 71.5994 209.883C71.5994 209.883 75.3671 212.03 78.615 207.341L78.0436 205.804Z" fill="#FFC25C"/>
<path d="M75.8053 199.055C75.8053 199.055 70.68 197.123 68.6995 203.696C68.6995 203.696 72.7164 206.071 76.3638 200.648L75.8053 199.055Z" fill="#FFC25C"/>
<path d="M74.6669 193.384C74.6669 193.384 70.8304 189.464 65.7438 193.985C65.7438 193.985 69.3654 197.42 74.7399 194.449L74.6669 193.384Z" fill="#FFC25C"/>
<path d="M73.7818 186.841C73.7818 186.841 69.8852 182.741 65.0263 187.197C65.0263 187.197 69.3525 190.756 73.8506 187.858L73.7818 186.841Z" fill="#FFC25C"/>
<path d="M73.8677 181.453C73.8677 181.453 70.9163 175.361 65.5977 178.422C65.5977 178.422 68.9401 183.776 73.7131 182.509L73.8677 181.453Z" fill="#FFC25C"/>
<path d="M74.6196 174.777C74.6196 174.777 71.6767 168.573 66.2808 171.905C66.2808 171.905 70.0871 177.516 74.4219 175.769L74.6196 174.777Z" fill="#FFC25C"/>
<path d="M75.7967 169.002C75.7967 169.002 74.3317 162.081 69.679 161.768C69.679 161.768 71.1526 169.067 75.264 170.299L75.7967 169.002Z" fill="#FFC25C"/>
<path d="M76.6774 163.451C76.6774 163.451 75.7322 155.066 71.8657 155.023C71.8657 155.023 72.4242 161.403 76.3079 164.67L76.6774 163.451Z" fill="#FFC25C"/>
<path d="M78.9157 156.706C78.9157 156.706 77.3047 149.785 73.6014 149.176C73.6014 149.176 74.5122 155.921 78.6751 158.445L78.9157 156.706Z" fill="#FFC25C"/>
<path d="M80.7501 150.945C80.7501 150.945 80.2217 143.646 77.9233 142.736C77.9233 142.736 76.9825 149.429 80.1659 151.919L80.7501 150.945Z" fill="#FFC25C"/>
<path d="M82.2409 145.234C82.2409 145.234 81.4246 137.747 79.0446 136.845C79.0446 136.845 78.6536 142.856 81.9273 145.75L82.2409 145.234Z" fill="#FFC25C"/>
<path d="M84.2515 138.4C84.2515 138.4 83.8219 132.299 82.1034 130.972C82.1034 130.972 80.9134 137.773 83.4911 139.683L84.2515 138.4Z" fill="#FFC25C"/>
<path d="M84.7155 132.548L82.4299 122.493C82.4299 122.493 80.8103 130.968 84.9131 134.377L84.7155 132.548Z" fill="#FFC25C"/>
<path d="M84.3503 122.428C84.3503 122.428 79.7749 115.873 79.8093 115.104C79.8093 115.104 80.7244 122.235 86.1461 125.455L84.3503 122.428Z" fill="#FFC25C"/>
<path d="M84.694 120.376C84.694 120.376 80.1573 110.931 78.3486 110.265C78.3486 110.265 84.0882 112.712 84.999 120.08L84.694 120.376Z" fill="#FFC25C"/>
<path d="M83.8047 139.378L83.5341 139.314C86.1117 128.413 86.4554 121.539 84.5479 119.964L84.7241 119.749C86.7476 121.423 86.4297 128.215 83.8047 139.378Z" fill="#444053"/>
<path d="M76.4626 164.992L76.0588 164.876C76.3423 163.876 76.6516 162.859 76.9781 161.871C79.8265 153.117 82.2065 144.998 83.6629 138.786L83.9937 138.588C82.533 144.814 80.226 153.237 77.3734 162C77.0469 162.992 76.7419 163.992 76.4626 164.992Z" fill="#444053"/>
<path d="M88.6808 223.235C88.625 223.179 82.9111 217.559 78.5205 207.599C75.9506 201.77 74.3194 195.571 73.6873 189.232C72.9011 181.307 73.9752 172.325 76.2908 164.078L76.6216 164.421C71.4276 182.93 75.0148 198.252 79.0188 207.354C83.3665 217.229 89.0116 222.78 89.0718 222.836L88.6808 223.235Z" fill="#444053"/>
<path d="M101.604 244.702C100.501 244.898 99.4214 245.206 98.3815 245.621C75.2082 254.869 75.5948 315.404 75.5948 315.404H68.7725C68.7725 315.404 66.6245 289.425 57.2632 252.361C48.8299 219.015 83.4181 189.129 90.4422 183.462C91.2327 182.831 91.6709 182.496 91.6709 182.496C126.508 195.29 101.604 244.702 101.604 244.702Z" fill="#AFC0E0"/>
<path opacity="0.2" d="M94.2057 183.548C93.4023 183.179 92.5731 182.827 91.6924 182.505C91.6924 182.505 91.2628 182.84 90.4637 183.471C83.4395 189.138 48.8514 219.024 57.2847 252.37C66.646 289.434 68.7725 315.405 68.7725 315.405H72.609C72.609 315.405 70.4824 289.426 61.0996 252.361C52.7007 219.17 86.9538 189.396 94.2057 183.548Z" fill="white"/>
<path d="M216.542 252.37C207.16 289.434 205.046 315.404 205.046 315.404H198.211C198.211 315.404 198.64 252.138 173.839 245.076C173.302 244.914 172.755 244.787 172.202 244.693C172.202 244.693 147.284 195.282 182.135 182.496C182.135 182.496 182.487 182.758 183.123 183.269C189.58 188.434 225.07 218.637 216.542 252.37Z" fill="#AFC0E0"/>
<path opacity="0.1" d="M101.604 244.702C100.501 244.898 99.4214 245.206 98.3815 245.621C94.1918 225.13 91.5381 204.356 90.4422 183.471C91.2327 182.84 91.6709 182.505 91.6709 182.505C126.508 195.29 101.604 244.702 101.604 244.702Z" fill="black"/>
<path opacity="0.1" d="M183.136 183.277C181.715 204.102 178.61 224.777 173.852 245.101C173.315 244.94 172.768 244.812 172.215 244.719C172.215 244.719 147.297 195.307 182.148 182.522C182.135 182.505 182.487 182.767 183.136 183.277Z" fill="black"/>
<path d="M170.38 254.07C167.975 263.555 165.155 273.287 161.921 283.264C161.921 283.264 146.576 299.24 109.508 283.264C109.508 283.264 105.805 272.832 101.732 255.096C92.7664 216.1 82.0132 141.787 104.925 65.4559C111.747 42.5093 121.445 20.5164 133.786 0C133.786 0 153.359 22.4583 167.725 65.443C182.092 108.428 191.234 171.947 170.38 254.07Z" fill="#E3E8F4"/>
<path d="M136.901 156.805C153.896 156.805 167.674 143.036 167.674 126.052C167.674 109.067 153.896 95.2988 136.901 95.2988C119.905 95.2988 106.127 109.067 106.127 126.052C106.127 143.036 119.905 156.805 136.901 156.805Z" fill="#AFC0E0"/>
<path d="M158.725 126.069C158.725 130.199 157.551 134.244 155.341 137.734C153.13 141.224 149.974 144.014 146.238 145.781C142.503 147.548 138.342 148.219 134.24 147.716C130.138 147.212 126.264 145.555 123.067 142.937C121.507 141.653 120.131 140.161 118.977 138.502C118.459 137.761 117.989 136.989 117.568 136.188C115.931 133.066 115.078 129.594 115.081 126.069C115.081 125.893 115.081 125.721 115.081 125.549C115.192 120.886 116.796 116.38 119.657 112.693C122.517 109.006 126.484 106.332 130.976 105.062C132.691 104.589 134.457 104.321 136.235 104.263H136.888C139.754 104.261 142.593 104.824 145.243 105.919C147.892 107.014 150.299 108.62 152.327 110.645C154.355 112.67 155.963 115.074 157.061 117.721C158.159 120.367 158.724 123.204 158.725 126.069Z" fill="#FFC25C"/>
<path d="M167.721 65.443C132.806 82.1483 104.903 65.443 104.903 65.443C111.734 42.4999 121.438 20.5113 133.786 0C133.786 0 153.359 22.4583 167.721 65.443Z" fill="#AFC0E0"/>
<path d="M170.38 254.07C168.748 260.493 166.929 267.026 164.924 273.669C163.973 276.837 162.971 280.032 161.917 283.251C161.917 283.251 146.571 299.227 109.504 283.251C109.504 283.251 108.301 279.864 106.497 273.669C105.148 268.989 103.468 262.717 101.715 255.083C101.715 255.083 115.514 260.969 135.101 260.969C147.2 261.011 159.189 258.666 170.38 254.07Z" fill="#AFC0E0"/>
<path d="M164.924 273.669C163.973 276.837 162.971 280.032 161.917 283.252C161.917 283.252 146.571 299.227 109.504 283.252C109.504 283.252 108.301 279.864 106.497 273.669C106.493 273.669 144.273 284.531 164.924 273.669Z" fill="#E3E8F4"/>
<path opacity="0.2" d="M130.989 105.032L130.942 105.066L115.089 125.52C115.089 125.691 115.089 125.863 115.089 126.039C115.086 129.564 115.94 133.036 117.577 136.158L136.256 104.233L130.989 105.032Z" fill="white"/>
<path opacity="0.2" d="M136.05 123.493L123.067 142.92C121.507 141.636 120.131 140.144 118.977 138.485L134.443 121.896L136.05 123.493Z" fill="white"/>
<path opacity="0.2" d="M117.8 283.256C117.8 283.256 114.097 272.819 110.024 255.088C101.058 216.087 90.3048 141.774 113.216 65.4431C119.375 44.7897 127.857 24.9006 138.499 6.15672C135.59 2.08236 133.773 0.00439453 133.773 0.00439453C121.43 20.5149 111.73 42.502 104.903 65.4431C81.9917 141.774 92.745 216.087 101.711 255.088C105.784 272.819 109.487 283.256 109.487 283.256C124.133 289.563 135.384 290.885 143.641 290.181C136.587 289.644 128.021 287.657 117.8 283.256Z" fill="white"/>
<path d="M402.539 312.953C402.539 312.953 422.619 287.983 421.288 262.975C420.663 252.49 423.458 242.087 429.253 233.325C432.042 229.18 435.205 225.3 438.704 221.733" stroke="#535461" stroke-width="2" stroke-miterlimit="10"/>
<path d="M437.944 205.985C436.509 209.467 438.657 222.162 438.657 222.162C438.657 222.162 449.127 214.657 450.562 211.176C451.25 209.503 451.246 207.626 450.55 205.957C449.854 204.288 448.523 202.964 446.85 202.275C445.176 201.587 443.298 201.591 441.628 202.287C439.958 202.983 438.633 204.313 437.944 205.985Z" fill="#FFC25C"/>
<path d="M419.565 220.985C420.257 224.686 428.965 234.174 428.965 234.174C428.965 234.174 433.691 222.192 432.982 218.487C432.65 216.709 431.625 215.135 430.133 214.112C428.64 213.089 426.802 212.701 425.023 213.032C423.244 213.363 421.669 214.387 420.646 215.879C419.622 217.37 419.233 219.207 419.565 220.985Z" fill="#FFC25C"/>
<path d="M406.444 254.139C408.91 256.985 421.223 260.785 421.223 260.785C421.223 260.785 419.23 248.064 416.764 245.213C415.567 243.891 413.9 243.09 412.119 242.982C410.339 242.874 408.587 243.467 407.238 244.634C405.89 245.801 405.053 247.45 404.906 249.226C404.759 251.003 405.315 252.766 406.453 254.139H406.444Z" fill="#FFC25C"/>
<path d="M402.17 281.457C404.116 284.681 415.608 290.503 415.608 290.503C415.608 290.503 415.797 277.623 413.851 274.403C413.388 273.637 412.778 272.969 412.056 272.438C411.334 271.907 410.515 271.523 409.645 271.309C408.775 271.094 407.871 271.053 406.985 271.188C406.099 271.322 405.248 271.63 404.481 272.093C403.714 272.556 403.046 273.166 402.515 273.887C401.983 274.608 401.599 275.427 401.385 276.297C401.17 277.166 401.129 278.069 401.264 278.955C401.398 279.84 401.706 280.69 402.17 281.457Z" fill="#FFC25C"/>
<path d="M441.935 240.301C438.438 241.697 425.756 239.421 425.756 239.421C425.756 239.421 433.368 229.036 436.87 227.636C438.55 226.965 440.429 226.988 442.092 227.701C443.756 228.414 445.067 229.758 445.739 231.438C446.411 233.117 446.387 234.995 445.674 236.657C444.96 238.319 443.615 239.63 441.935 240.301Z" fill="#FFC25C"/>
<path d="M436.53 272.188C432.775 272.476 421.356 266.512 421.356 266.512C421.356 266.512 431.727 258.874 435.486 258.587C437.269 258.487 439.02 259.09 440.364 260.266C441.707 261.442 442.536 263.097 442.673 264.877C442.809 266.656 442.243 268.418 441.094 269.785C439.946 271.152 438.308 272.014 436.53 272.188Z" fill="#FFC25C"/>
<path d="M427.023 302.455C423.367 303.374 411.106 299.424 411.106 299.424C411.106 299.424 420.037 290.146 423.693 289.232C424.562 289.013 425.466 288.968 426.352 289.099C427.238 289.229 428.09 289.533 428.859 289.992C429.628 290.452 430.299 291.058 430.834 291.776C431.368 292.495 431.756 293.312 431.974 294.18C432.193 295.048 432.238 295.951 432.108 296.837C431.977 297.723 431.673 298.574 431.214 299.342C430.754 300.111 430.147 300.781 429.428 301.315C428.709 301.85 427.892 302.237 427.023 302.455Z" fill="#FFC25C"/>
<path opacity="0.25" d="M437.944 205.985C436.509 209.467 438.657 222.162 438.657 222.162C438.657 222.162 449.127 214.657 450.562 211.176C451.25 209.503 451.246 207.626 450.55 205.957C449.854 204.288 448.523 202.964 446.85 202.275C445.176 201.587 443.298 201.591 441.628 202.287C439.958 202.983 438.633 204.313 437.944 205.985Z" fill="black"/>
<path opacity="0.25" d="M419.565 220.985C420.257 224.686 428.965 234.174 428.965 234.174C428.965 234.174 433.691 222.192 432.982 218.487C432.65 216.709 431.625 215.135 430.133 214.112C428.64 213.089 426.802 212.701 425.023 213.032C423.244 213.363 421.669 214.387 420.646 215.879C419.622 217.37 419.233 219.207 419.565 220.985Z" fill="black"/>
<path opacity="0.25" d="M406.444 254.139C408.91 256.985 421.223 260.785 421.223 260.785C421.223 260.785 419.23 248.064 416.764 245.213C415.567 243.891 413.9 243.09 412.119 242.982C410.339 242.874 408.587 243.467 407.238 244.634C405.89 245.801 405.053 247.45 404.906 249.226C404.759 251.003 405.315 252.766 406.453 254.139H406.444Z" fill="black"/>
<path opacity="0.25" d="M402.17 281.457C404.116 284.681 415.608 290.503 415.608 290.503C415.608 290.503 415.797 277.623 413.851 274.403C413.388 273.637 412.778 272.969 412.056 272.438C411.334 271.907 410.515 271.523 409.645 271.309C408.775 271.094 407.871 271.053 406.985 271.188C406.099 271.322 405.248 271.63 404.481 272.093C403.714 272.556 403.046 273.166 402.515 273.887C401.983 274.608 401.599 275.427 401.385 276.297C401.17 277.166 401.129 278.069 401.264 278.955C401.398 279.84 401.706 280.69 402.17 281.457Z" fill="black"/>
<path opacity="0.25" d="M441.935 240.301C438.438 241.697 425.756 239.421 425.756 239.421C425.756 239.421 433.368 229.036 436.87 227.636C438.55 226.965 440.429 226.988 442.092 227.701C443.756 228.414 445.067 229.758 445.739 231.438C446.411 233.117 446.387 234.995 445.674 236.657C444.96 238.319 443.615 239.63 441.935 240.301Z" fill="black"/>
<path opacity="0.25" d="M436.53 272.188C432.775 272.476 421.356 266.512 421.356 266.512C421.356 266.512 431.727 258.874 435.486 258.587C437.269 258.487 439.02 259.09 440.364 260.266C441.707 261.442 442.536 263.097 442.673 264.877C442.809 266.656 442.243 268.418 441.094 269.785C439.946 271.152 438.308 272.014 436.53 272.188Z" fill="black"/>
<path opacity="0.25" d="M427.023 302.455C423.367 303.374 411.106 299.424 411.106 299.424C411.106 299.424 420.037 290.146 423.693 289.232C424.562 289.013 425.466 288.968 426.352 289.099C427.238 289.229 428.09 289.533 428.859 289.992C429.628 290.452 430.299 291.058 430.834 291.776C431.368 292.495 431.756 293.312 431.974 294.18C432.193 295.048 432.238 295.951 432.108 296.837C431.977 297.723 431.673 298.574 431.214 299.342C430.754 300.111 430.147 300.781 429.428 301.315C428.709 301.85 427.892 302.237 427.023 302.455Z" fill="black"/>
<path d="M402.72 311.91C402.72 311.91 431.203 297.209 440.126 273.811C443.805 263.971 450.58 255.589 459.433 249.927C463.656 247.269 468.114 245.004 472.751 243.161" stroke="#535461" stroke-width="2" stroke-miterlimit="10"/>
<path d="M478.461 228.447C475.737 231.053 472.553 243.53 472.553 243.53C472.553 243.53 485.167 240.906 487.891 238.305C489.201 237.055 489.961 235.336 490.003 233.527C490.045 231.717 489.367 229.965 488.116 228.655C486.866 227.346 485.146 226.587 483.335 226.544C481.524 226.502 479.771 227.18 478.461 228.43V228.447Z" fill="#FFC25C"/>
<path d="M455.579 234.72C454.72 238.386 458.823 250.605 458.823 250.605C458.823 250.605 467.969 241.559 468.854 237.871C469.266 236.114 468.963 234.266 468.014 232.732C467.064 231.198 465.545 230.102 463.788 229.685C462.032 229.268 460.182 229.564 458.643 230.508C457.104 231.451 456.003 232.966 455.579 234.72Z" fill="#FFC25C"/>
<path d="M430.138 259.716C431.237 263.318 440.955 271.776 440.955 271.776C440.955 271.776 444.293 259.325 443.194 255.74C442.932 254.884 442.505 254.087 441.936 253.395C441.366 252.703 440.666 252.131 439.875 251.709C439.084 251.288 438.218 251.027 437.326 250.94C436.434 250.854 435.534 250.943 434.677 251.204C433.819 251.465 433.022 251.893 432.33 252.462C431.638 253.031 431.065 253.73 430.643 254.521C430.222 255.311 429.96 256.177 429.873 257.068C429.787 257.959 429.876 258.859 430.138 259.716Z" fill="#FFC25C"/>
<path d="M415.153 282.96C415.625 286.699 423.771 296.673 423.771 296.673C423.771 296.673 429.167 284.982 428.69 281.242C428.462 279.449 427.53 277.819 426.1 276.711C424.669 275.604 422.857 275.109 421.062 275.337C419.267 275.565 417.636 276.496 416.528 277.925C415.419 279.355 414.925 281.166 415.153 282.96Z" fill="#FFC25C"/>
<path d="M468.197 261.437C464.429 261.3 453.762 254.083 453.762 254.083C453.762 254.083 464.932 247.673 468.7 247.81C469.595 247.843 470.475 248.052 471.29 248.425C472.104 248.798 472.837 249.327 473.447 249.984C474.057 250.64 474.531 251.409 474.844 252.248C475.156 253.088 475.299 253.98 475.266 254.875C475.233 255.77 475.024 256.649 474.651 257.463C474.278 258.277 473.748 259.01 473.092 259.619C472.435 260.229 471.665 260.703 470.825 261.015C469.986 261.327 469.092 261.47 468.197 261.437Z" fill="#FFC25C"/>
<path d="M450.325 288.399C446.772 287.141 438.751 277.065 438.751 277.065C438.751 277.065 451.335 274.287 454.883 275.545C455.728 275.844 456.505 276.307 457.171 276.906C457.837 277.505 458.378 278.23 458.763 279.038C459.149 279.846 459.372 280.723 459.418 281.617C459.465 282.511 459.335 283.406 459.036 284.25C458.736 285.094 458.274 285.871 457.674 286.536C457.074 287.201 456.349 287.742 455.54 288.127C454.732 288.513 453.855 288.735 452.96 288.782C452.065 288.828 451.17 288.698 450.325 288.399Z" fill="#FFC25C"/>
<path d="M429.356 312.223C425.644 311.583 416.038 303.005 416.038 303.005C416.038 303.005 427.968 298.145 431.68 298.785C433.463 299.092 435.051 300.095 436.094 301.572C437.138 303.05 437.551 304.881 437.243 306.663C436.936 308.445 435.932 310.032 434.454 311.074C432.976 312.117 431.143 312.53 429.36 312.223H429.356Z" fill="#FFC25C"/>
<path d="M443.219 298.111L421.141 266.112C421.141 266.112 420.712 258.191 419.286 256.341C417.859 254.49 418.976 250.373 418.976 250.373C418.976 250.373 420.523 248.111 419.182 247.905C417.842 247.698 418.976 242.654 418.976 242.654L418.873 234.63C418.873 234.63 420.11 226.902 419.079 225.064C418.777 224.564 418.627 223.987 418.645 223.402C418.663 222.818 418.85 222.252 419.182 221.771C419.182 221.771 420.42 217.345 419.182 216.216C417.945 215.086 418.255 208.187 418.564 202.735C418.873 197.282 416.394 194.195 416.394 193.371C416.394 192.547 408.232 184.522 408.232 183.805C408.232 183.088 403.076 180.1 399.979 179.276C396.881 178.452 395.335 177.838 395.438 177.425C395.541 177.013 390.587 175.369 390.587 175.369C390.587 175.369 386.253 175.06 384.599 172.896C382.945 170.732 377.901 170.114 377.755 170.092C377.725 169.951 377.69 169.805 377.66 169.663C377.63 169.521 377.596 169.354 377.566 169.199C377.957 168.543 378.318 167.873 378.644 167.182C378.743 166.971 378.837 166.752 378.928 166.555C380.736 166.473 382.592 166.087 384.01 164.979C384.738 164.37 385.334 163.618 385.759 162.769C386.184 161.921 386.429 160.994 386.48 160.046C386.568 158.144 386.151 156.253 385.273 154.564C384.371 152.709 383.043 150.79 383.499 148.78C383.701 147.922 384.221 147.149 384.487 146.299C384.99 144.689 384.526 142.92 383.744 141.426C382.962 139.932 381.875 138.618 381.007 137.171C379.898 135.328 379.159 133.286 378.829 131.161C378.653 130.044 378.584 128.868 378.021 127.885C377.555 127.155 376.938 126.533 376.213 126.06C372.985 123.753 369.086 122.572 365.12 122.699C362.31 122.797 359.509 123.557 356.721 123.209C355.041 123.003 353.439 122.407 351.815 121.921C348.352 120.9 344.361 120.479 341.345 122.458C338.329 124.437 337.131 128.331 335.09 131.375C333.286 134.072 330.639 136.33 329.264 139.181C329.264 139.129 329.29 139.073 329.307 139.017C328.969 139.677 328.711 140.375 328.538 141.095C328.014 143.337 328.452 145.681 328.998 147.917C329.277 149.072 329.664 150.326 330.665 150.966C331.666 151.605 333.084 151.464 334.269 151.674C334.226 151.867 334.175 152.065 334.132 152.262C332.904 158.059 333.906 164.106 336.939 169.198C339.971 174.29 344.812 178.054 350.496 179.74C350.496 179.95 350.496 180.169 350.496 180.366C350.494 180.958 350.458 181.548 350.388 182.135C350.388 182.135 340.013 179.989 337.225 181.448C334.437 182.908 328.968 184.024 328.143 184.84C327.318 185.656 325.256 185.046 323.417 189.885C321.579 194.723 321.355 199.656 318.979 201.906C316.604 204.156 315.371 205.714 315.268 207.363C315.164 209.011 315.577 209.419 314.645 209.939C313.712 210.458 312.376 212.613 312.789 213.438C312.789 213.438 313.304 215.494 311.655 216.52C310.005 217.546 310.207 219.607 310.207 219.607C310.207 219.607 309.588 221.874 308.145 222.385C306.701 222.896 305.769 226.296 305.769 226.296L301.073 231.684L291.798 221.423C291.103 220.654 290.131 220.193 289.096 220.139C288.061 220.086 287.047 220.446 286.277 221.14L281.723 225.244C279.966 225.67 278.377 226.616 277.165 227.958C276.173 228.976 275.374 230.166 274.807 231.47L272.311 233.711C271.526 234.683 271.047 235.865 270.933 237.109C270.819 238.353 271.076 239.602 271.67 240.7L277.612 247.265L277.651 247.321C275.404 247.604 273.419 248.325 271.902 249.66C263.031 257.479 262.923 264.687 264.268 267.971C265.613 271.256 276.856 283.921 276.856 283.921C276.856 283.921 283.39 292.409 292.825 296.926L292.752 296.999C292.567 297.196 292.382 297.428 292.202 297.643L292.047 297.84L291.905 298.038L291.738 298.287C291.69 298.351 291.647 298.42 291.604 298.488C291.561 298.557 291.484 298.682 291.428 298.785L291.312 298.982C291.244 299.111 291.171 299.244 291.102 299.381L291.033 299.514C290.947 299.695 290.861 299.879 290.78 300.073C290.75 300.141 290.724 300.214 290.694 300.283C290.642 300.416 290.586 300.553 290.535 300.712C290.483 300.871 290.47 300.888 290.44 300.979C290.41 301.069 290.35 301.245 290.307 301.382C290.264 301.519 290.247 301.575 290.221 301.67C290.195 301.764 290.135 301.97 290.097 302.125C290.058 302.279 290.049 302.305 290.023 302.404C289.968 302.64 289.912 302.885 289.865 303.142C289.865 303.237 289.83 303.336 289.813 303.434C289.779 303.606 289.749 303.782 289.723 303.962C289.701 304.087 289.688 304.211 289.671 304.336C289.654 304.46 289.628 304.675 289.607 304.847L289.568 305.242C289.568 305.431 289.534 305.628 289.521 305.826C289.521 305.946 289.521 306.066 289.499 306.186C289.499 306.513 289.465 306.839 289.461 307.182C289.254 319.204 289.959 320.968 289.959 320.968C289.959 320.968 291.415 324.802 295.437 325.077C296.027 325.12 296.62 325.088 297.202 324.982C302.568 324.055 315.156 321.896 319.594 322.72C322.262 323.214 327.202 322.484 330.721 321.818L331.644 321.642L332.289 323.686L334.33 323.128L336.048 324.128L337.143 324.755C339.18 331.659 347.454 329.306 347.454 329.306L349.396 330.431L369.313 330.946C369.313 330.946 373.609 333.522 376.363 334.329C376.69 334.428 377.025 334.501 377.364 334.548C379.21 334.696 381.064 334.73 382.915 334.651C384.44 334.612 385.621 334.548 385.621 334.548C385.621 334.548 385.419 329.143 385.127 323.093C392.74 322.776 399.489 322.299 403.575 321.582C414.212 319.715 418.65 310.05 420.282 304.885C420.773 306.996 421.122 309.138 421.326 311.295C421.76 313.18 422.312 315.036 422.98 316.851C423.561 318.311 424.323 319.693 425.249 320.964C433.093 318.289 428.346 314.279 426.692 312.528C425.038 310.776 427.831 309.338 427.831 309.338C427.831 309.338 429.979 307.899 429.79 306.56C429.601 305.22 429.48 303.782 436.496 303.885C443.511 303.988 443.219 298.111 443.219 298.111ZM334.244 232.423C334.334 233.011 335.313 239.352 336.198 241.009C336.383 241.361 336.456 242.611 336.43 244.397C332.272 244.066 327.941 243.89 327.941 243.89C328.066 244.041 328.144 244.224 328.165 244.418L327.512 244.272L326.562 244.041L334.222 232.397L334.244 232.423ZM319.07 256.551L326.266 257.693L326.871 257.788C326.665 258.909 326.54 260.044 326.498 261.184C326.498 261.291 326.661 261.42 326.893 261.57C326.792 262.137 326.745 262.712 326.751 263.287C326.867 263.858 330.231 265.086 334.089 266.108C334.037 266.314 333.986 266.512 333.934 266.696C330.527 264.906 325.157 264.069 324.539 262.738C323.92 261.407 305.636 255.01 305.636 255.01C305.636 255.01 304.97 254.658 303.818 254.1L308.63 255.01L309.953 254.877C312.953 255.627 315.998 256.183 319.07 256.543V256.551Z" fill="url(#paint0_linear)"/>
<path d="M419.728 302.588C419.728 302.588 416.867 319.86 402.342 322.415C387.816 324.969 339.335 324.459 339.335 324.459C339.335 324.459 311.616 320.474 301.593 297.067C291.57 273.66 285.126 264.356 293.718 263.949C302.31 263.541 348.644 279.589 351.286 279.791C353.928 279.993 422.284 244.221 419.728 302.588Z" fill="#434175"/>
<path opacity="0.05" d="M419.728 302.588C419.728 302.588 416.867 319.86 402.342 322.415C387.816 324.969 339.335 324.459 339.335 324.459C339.335 324.459 311.616 320.474 301.593 297.067C291.57 273.66 285.126 264.356 293.718 263.949C302.31 263.541 348.644 279.589 351.286 279.791C353.928 279.993 422.284 244.221 419.728 302.588Z" fill="black"/>
<path d="M289.71 321.801C289.71 321.801 291.158 325.614 295.14 325.884C295.725 325.926 296.312 325.894 296.889 325.79C302.207 324.871 314.688 322.725 319.083 323.54C321.729 324.034 326.622 323.304 330.106 322.647C332.426 322.218 334.119 321.789 334.119 321.789C334.119 321.789 330.029 308.196 329.514 307.788C328.998 307.38 311.105 296.647 311.105 296.647L296.927 295.629H296.884C296.884 295.629 294.259 295.805 292.081 298.45C290.582 300.258 289.297 303.229 289.212 308.097C289.014 320.063 289.71 321.801 289.71 321.801Z" fill="#565387"/>
<path opacity="0.05" d="M289.71 321.801C289.71 321.801 291.158 325.614 295.14 325.884C293.743 324.089 292.452 322.214 291.274 320.269L291.347 310.355C290.715 302.932 294.191 298.179 296.932 295.642H296.889C296.889 295.642 289.422 296.149 289.216 308.093C289.01 320.037 289.71 321.801 289.71 321.801Z" fill="black"/>
<path opacity="0.1" d="M351.2 300.133L364.394 289.829L385.157 269.384C385.157 269.384 382.915 269.277 379.533 269.131C378.674 269.668 376.333 271.355 376.247 273.424C376.144 275.923 370.632 273.596 367.771 275.026C364.909 276.455 350.895 294.38 348.438 294.264C345.981 294.148 344.043 293.019 343.016 294.758C343.016 294.796 342.969 294.831 342.943 294.869L351.2 300.133Z" fill="black"/>
<path opacity="0.1" d="M292.086 298.459C292.554 298.686 293.026 298.888 293.512 299.111C303.539 303.405 315.912 312.421 316.836 314.035C317.394 315.031 324.569 319.384 330.106 322.647C332.426 322.218 334.119 321.789 334.119 321.789C334.119 321.789 330.029 308.196 329.514 307.788C328.998 307.38 311.105 296.647 311.105 296.647L296.927 295.629H296.884C296.884 295.629 294.264 295.814 292.086 298.459Z" fill="black"/>
<path d="M264.264 269.161C265.591 272.433 276.723 285.008 276.723 285.008C276.723 285.008 283.777 294.204 293.804 298.497C303.831 302.791 316.204 311.807 317.124 313.421C317.716 314.473 325.716 319.281 331.335 322.587L332.594 323.321L335.386 324.94L336.864 325.798C336.864 325.798 340.301 323.051 343.699 320.286C347.098 317.521 350.414 314.812 350.47 314.657C350.569 314.352 351.896 310.875 351.591 310.673C351.432 310.566 350.732 309.149 349.443 307.509C348.068 305.689 346.283 304.218 344.232 303.216C339.506 301.069 337.483 296.183 337.483 296.183C337.483 296.183 337.053 295.857 336.353 295.428C335.142 294.663 333.195 293.564 331.756 293.38C329.501 293.096 325.312 288.498 325.312 288.498C325.312 288.498 322.446 286.656 321.321 284.308C320.247 282.067 304.385 271.179 302.916 270.174L341.371 294.852L350.573 300.764L363.767 290.46L384.534 270.015C384.534 270.015 381.742 269.878 377.66 269.706C367.569 269.277 349.645 268.586 347.381 269.097C345.538 269.526 343.637 269.649 341.753 269.462C341.753 269.462 336.649 269.693 333.273 267.912C329.896 266.13 324.573 265.297 323.959 263.979C323.344 262.661 305.24 256.315 305.24 256.315C305.24 256.315 280.593 243.234 271.795 251.005C262.997 258.775 262.932 265.894 264.264 269.161Z" fill="#434175"/>
<path d="M343.734 194.14L346.904 204.667L350.994 228.379L366.031 229.401L370.383 222.188L374.743 214.988C374.743 214.988 377.45 205.405 379.396 196.136C381.114 187.936 382.24 179.976 380.367 179.113C378.709 178.344 377.617 175.584 376.93 172.613C376.84 172.248 376.758 171.874 376.681 171.501C376.18 168.986 375.847 166.44 375.684 163.88C375.684 163.88 344.181 162.249 348.58 175.228C349.365 177.445 349.766 179.779 349.766 182.131C349.761 182.718 349.725 183.304 349.658 183.887C349.434 185.913 348.792 187.87 347.772 189.635C346.753 191.399 345.377 192.933 343.734 194.14Z" fill="#EE8E9E"/>
<path d="M337.186 192.401L338.312 210.287L340.868 225.515L343.734 232.569L346.29 271.157C346.29 271.157 370.954 274.008 376.951 271.106C377.384 270.921 377.759 270.625 378.038 270.247C385.282 259.329 382.906 227.662 382.906 227.662L385.668 207.213L383.825 196.6L379.379 196.127L375.942 195.762C375.942 195.762 375.169 196.715 374.052 198.188C371.019 202.189 365.459 210.059 365.816 213.343C366.323 217.843 365.202 222.441 363.462 223.158C361.722 223.875 360.291 225.099 359.986 223.875C359.681 222.651 359.372 222.342 359.677 220.603C359.982 218.865 358.345 213.55 358.345 213.55C358.345 213.55 355.587 207.316 355.767 204.658C355.948 202 355.462 198.931 354.642 198.218C353.821 197.505 352.7 196.784 353.619 193.495C354.539 190.207 349.585 183.857 349.585 183.857L337.186 192.401Z" fill="#E3E8F4"/>
<path opacity="0.1" d="M369.764 237.073L370.787 267.637L376.694 270.908C377.126 270.724 377.501 270.427 377.781 270.049C385.028 259.114 382.652 227.451 382.652 227.451L385.415 207.006L383.572 196.398L379.121 195.925C380.839 187.725 381.965 179.765 380.096 178.902C378.434 178.134 377.342 175.373 376.634 172.402L373.454 194.041C373.454 194.041 373.721 195.99 373.815 197.999C373.888 199.493 373.863 201.004 373.558 201.807C372.84 203.649 373.351 206.921 373.351 206.921C371.508 210.166 370.589 216.181 370.138 221.99C369.532 229.714 369.764 237.073 369.764 237.073Z" fill="black"/>
<path d="M376.732 171.93C376.732 171.93 381.888 172.57 383.52 174.717C385.153 176.863 389.453 177.159 389.453 177.159C389.453 177.159 394.364 178.795 394.261 179.203C394.158 179.611 395.691 180.229 398.763 181.045C401.835 181.861 406.926 184.827 406.926 185.544C406.926 186.261 415.007 194.23 415.007 195.05C415.007 195.87 417.464 198.914 417.155 204.349C416.845 209.784 416.54 216.615 417.769 217.74C418.998 218.865 417.769 223.261 417.769 223.261C417.443 223.742 417.264 224.307 417.252 224.887C417.241 225.468 417.398 226.039 417.705 226.533C418.727 228.374 417.503 236.042 417.503 236.042L417.602 244.015C417.602 244.015 416.476 249.021 417.808 249.227C419.14 249.433 417.602 251.679 417.602 251.679C417.602 251.679 416.476 255.77 417.911 257.608C419.346 259.445 419.75 267.319 419.75 267.319L441.66 299.09C441.66 299.09 441.969 304.916 435.014 304.813C428.058 304.71 428.14 306.144 428.363 307.47C428.587 308.797 426.422 310.231 426.422 310.231C426.422 310.231 423.659 311.66 425.296 313.399C426.933 315.138 431.637 319.122 423.865 321.78C422.946 320.518 422.189 319.144 421.614 317.693C420.954 315.889 420.408 314.047 419.977 312.176C419.977 312.176 419.26 304.405 417.829 303.383C416.399 302.361 416.601 297.454 416.601 297.454C416.601 297.454 418.646 293.47 415.784 291.834C412.923 290.198 371.349 267.22 371.349 267.22L370.327 236.656C370.327 236.656 369.609 214.069 373.906 206.504C373.906 206.504 373.394 203.233 374.112 201.395C374.829 199.558 374.009 193.624 374.009 193.624L376.732 171.93Z" fill="#565387"/>
<path opacity="0.1" d="M349.925 184.192C349.925 184.192 339.644 182.075 336.881 183.505C334.119 184.935 328.719 186.081 327.86 186.88C327 187.678 324.994 187.086 323.155 191.89C321.317 196.694 321.106 201.597 318.756 203.847C316.406 206.097 315.177 207.629 315.074 209.265C314.971 210.901 315.379 211.309 314.46 211.841C313.541 212.373 312.209 214.499 312.617 215.319C313.025 216.139 333.93 234.102 333.93 234.102C333.93 234.102 334.957 240.971 335.876 242.688C336.796 244.406 334.854 268.345 332.809 269.981C330.764 271.617 346.617 271.467 346.617 271.467C346.617 271.467 347.33 255.775 347.944 254.955C348.558 254.134 347.514 237.352 347.514 237.352C347.514 237.352 347.411 223.042 348.743 219.26C350.075 215.477 349.925 202.92 349.925 202.92C349.925 202.92 351.102 195.376 352.532 193.616C353.963 191.856 349.925 184.192 349.925 184.192Z" fill="black"/>
<path d="M349.619 183.887C349.619 183.887 339.335 181.77 336.572 183.2C333.81 184.63 328.409 185.754 327.572 186.574C326.734 187.395 324.71 186.776 322.846 191.581C320.981 196.385 320.801 201.292 318.447 203.542C316.092 205.791 314.868 207.324 314.765 208.96C314.662 210.596 315.074 211.003 314.155 211.514C313.235 212.025 311.904 214.172 312.312 214.988C312.72 215.803 333.586 233.797 333.586 233.797C333.586 233.797 334.609 240.666 335.528 242.383C336.448 244.101 334.506 268.036 332.461 269.672C330.416 271.307 346.268 271.157 346.268 271.157C346.268 271.157 346.986 255.465 347.6 254.649C348.215 253.834 347.171 237.047 347.171 237.047C347.171 237.047 347.072 222.737 348.399 218.955C349.727 215.172 349.581 202.597 349.581 202.597C349.581 202.597 350.758 195.054 352.184 193.298C353.611 191.542 349.619 183.887 349.619 183.887Z" fill="#565387"/>
<path opacity="0.1" d="M348.537 175.228C349.322 177.445 349.723 179.779 349.723 182.131C354.752 183.62 360.136 183.382 365.015 181.455C369.894 179.529 373.986 176.024 376.638 171.501C376.137 168.986 375.804 166.44 375.641 163.88C375.641 163.88 344.142 162.249 348.537 175.228Z" fill="black"/>
<path d="M332.993 159.076C332.999 165.072 335.306 170.837 339.44 175.183C343.574 179.529 349.22 182.123 355.212 182.431C361.204 182.74 367.085 180.738 371.644 176.84C376.203 172.942 379.091 167.444 379.712 161.48C380.334 155.516 378.642 149.541 374.985 144.788C371.328 140.035 365.984 136.865 360.057 135.933C354.13 135 348.072 136.377 343.13 139.778C338.189 143.179 334.742 148.345 333.5 154.212C333.162 155.811 332.992 157.441 332.993 159.076Z" fill="#EE8E9E"/>
<path d="M317.957 213.249L312.333 214.988C312.333 214.988 312.845 217.031 311.208 218.053C309.571 219.075 309.777 221.123 309.777 221.123C309.777 221.123 309.163 223.368 307.732 223.879C306.302 224.39 305.378 227.743 305.378 227.743L300.674 233.161C300.674 233.161 298.934 234.591 299.243 235.308C299.552 236.025 297.4 236.227 297.4 236.227L298.526 254.439L308.243 256.281L314.258 255.667L319.168 253.825L323.465 251.249L325.424 246.282L334.016 233.2L317.957 213.249Z" fill="#565387"/>
<path d="M298.831 237.695C298.831 237.695 286.372 219.702 277.045 229.414C267.718 239.125 280.83 254.864 283.897 254.353C286.965 253.843 301.593 253.027 301.593 253.027L298.831 237.695Z" fill="#EE8E9E"/>
<path d="M284.572 225.158L273.03 235.562C270.807 237.566 270.63 240.992 272.636 243.214L285.458 257.42C287.463 259.642 290.892 259.819 293.115 257.815L304.657 247.411C306.881 245.406 307.057 241.98 305.052 239.758L292.23 225.552C290.224 223.33 286.796 223.154 284.572 225.158Z" fill="#30374E"/>
<path opacity="0.1" d="M284.572 225.158L273.03 235.562C270.807 237.566 270.63 240.992 272.636 243.214L285.458 257.42C287.463 259.642 290.892 259.819 293.115 257.815L304.657 247.411C306.881 245.406 307.057 241.98 305.052 239.758L292.23 225.552C290.224 223.33 286.796 223.154 284.572 225.158Z" fill="black"/>
<path d="M284.924 223.677L273.382 234.08C271.158 236.085 270.982 239.511 272.987 241.733L285.809 255.939C287.815 258.161 291.243 258.337 293.467 256.333L305.009 245.929C307.232 243.925 307.409 240.499 305.403 238.277L292.581 224.071C290.576 221.849 287.147 221.672 284.924 223.677Z" fill="#30374E"/>
<path d="M288.868 246.57C292.088 246.57 294.698 243.961 294.698 240.744C294.698 237.526 292.088 234.917 288.868 234.917C285.648 234.917 283.038 237.526 283.038 240.744C283.038 243.961 285.648 246.57 288.868 246.57Z" fill="#FFC25C"/>
<path opacity="0.1" d="M288.868 246.57C292.088 246.57 294.698 243.961 294.698 240.744C294.698 237.526 292.088 234.917 288.868 234.917C285.648 234.917 283.038 237.526 283.038 240.744C283.038 243.961 285.648 246.57 288.868 246.57Z" fill="black"/>
<path d="M289.194 245.831C292.414 245.831 295.024 243.222 295.024 240.005C295.024 236.787 292.414 234.179 289.194 234.179C285.975 234.179 283.365 236.787 283.365 240.005C283.365 243.222 285.975 245.831 289.194 245.831Z" fill="#FFC25C"/>
<path d="M290.754 241.461C290.651 254.955 318.576 257.814 318.576 257.814L325.707 258.947L328.904 259.454L330.235 246.282C330.235 246.282 328.77 246.063 326.94 245.638C324.238 245.007 320.737 243.921 320.002 242.397C318.778 239.842 290.853 227.971 290.754 241.461Z" fill="#EE8E9E"/>
<path opacity="0.1" d="M333.5 154.212C334.145 154.259 334.752 154.529 335.219 154.976C336.009 155.813 336.052 157.299 337.079 157.814C337.463 157.981 337.887 158.03 338.299 157.956C341.019 157.569 342.595 154.521 345.203 153.662C346.69 153.181 348.326 153.495 349.778 154.053C350.362 154.236 350.886 154.572 351.295 155.027C352.154 156.157 351.557 157.818 351.961 159.188C352.524 161.085 354.792 161.841 356.755 162.09C358.719 162.339 360.931 162.476 362.242 163.958C363.17 165.009 363.406 166.534 363.217 167.912C363.101 168.393 363.101 168.895 363.217 169.376C363.758 170.908 366.413 170.664 367.105 169.47C367.612 168.59 367.457 167.86 368.651 167.615C369.459 167.448 370.409 167.787 371.156 168.045C373.238 168.763 375.433 169.1 377.635 169.041C379.027 166.055 379.773 162.808 379.823 159.514C379.874 156.22 379.228 152.952 377.929 149.925C376.629 146.897 374.705 144.177 372.281 141.944C369.858 139.71 366.99 138.013 363.865 136.963C360.74 135.913 357.429 135.534 354.148 135.851C350.866 136.168 347.689 137.173 344.823 138.801C341.957 140.429 339.467 142.643 337.516 145.299C335.565 147.954 334.196 150.991 333.5 154.212Z" fill="black"/>
<path d="M363.204 168.758C363.088 168.277 363.088 167.775 363.204 167.294C363.389 165.907 363.157 164.387 362.229 163.34C360.94 161.858 358.706 161.717 356.743 161.472C354.779 161.227 352.511 160.472 351.948 158.574C351.544 157.204 352.154 155.539 351.282 154.41C350.876 153.955 350.353 153.619 349.77 153.439C348.314 152.877 346.677 152.581 345.19 153.044C342.582 153.903 341.006 156.96 338.286 157.338C337.875 157.412 337.45 157.363 337.066 157.196C336.039 156.681 335.996 155.195 335.206 154.362C333.964 153.049 331.606 153.894 330.085 152.92C329.093 152.28 328.71 151.039 328.435 149.893C327.894 147.669 327.46 145.338 327.98 143.114C328.869 139.31 332.276 136.704 334.424 133.458C336.448 130.431 337.582 126.589 340.623 124.597C343.665 122.605 347.57 123.047 350.999 124.064C352.605 124.541 354.195 125.133 355.858 125.352C358.624 125.691 361.4 124.923 364.183 124.846C368.115 124.719 371.98 125.891 375.177 128.182C375.898 128.653 376.51 129.272 376.973 129.998C377.527 130.977 377.6 132.144 377.768 133.252C378.093 135.365 378.822 137.396 379.916 139.233C380.775 140.671 381.853 141.976 382.631 143.462C383.409 144.947 383.864 146.703 383.366 148.3C383.104 149.159 382.584 149.902 382.39 150.764C381.935 152.761 383.25 154.667 384.148 156.509C385.017 158.189 385.429 160.068 385.342 161.957C385.292 162.898 385.048 163.818 384.627 164.661C384.206 165.504 383.616 166.251 382.893 166.856C381.445 167.989 379.542 168.367 377.708 168.427C375.463 168.503 373.224 168.167 371.1 167.435C370.348 167.178 369.382 166.839 368.596 167.006C367.401 167.251 367.556 167.981 367.049 168.861C366.396 170.063 363.745 170.29 363.204 168.758Z" fill="#434175"/>
<path opacity="0.1" d="M350.586 300.747L363.78 290.443L384.547 269.998C384.547 269.998 381.755 269.861 377.673 269.689C376.93 270.445 376.268 271.406 376.225 272.48C376.122 274.978 370.61 272.656 367.749 274.085C364.888 275.515 350.874 293.435 348.417 293.319C345.959 293.203 344.022 292.074 342.995 293.813C342.973 293.853 342.949 293.892 342.922 293.929C342.514 294.395 341.967 294.718 341.362 294.852L350.586 300.747Z" fill="black"/>
<path d="M323.993 300.03L330.622 321.179L331.662 324.502L334.819 323.643L341.779 321.732L372.78 313.223C372.78 313.223 378.605 313.146 383.95 310.248C389.857 307.036 396.52 305.422 403.214 306.049C407.312 306.431 411.87 304.667 415.673 297.686C415.673 297.686 424.265 272.355 402.578 265.056C380.891 257.758 379.86 268.92 379.86 268.92C379.86 268.92 379.748 268.98 379.568 269.101C378.709 269.637 376.367 271.325 376.281 273.394C376.178 275.893 370.666 273.566 367.805 274.995C364.944 276.425 350.93 294.35 348.472 294.234C346.015 294.118 344.077 292.989 343.051 294.728C343.051 294.766 343.003 294.8 342.978 294.839C342.221 295.882 339.945 296.127 338.437 296.166C337.616 296.192 337.019 296.166 337.019 296.166L336.826 296.226L335.219 296.672L323.993 300.03Z" fill="#434175"/>
<path opacity="0.1" d="M325.707 258.947L328.904 259.454L330.235 246.282C330.235 246.282 328.77 246.063 326.94 245.638C327.426 247.462 326.326 254.576 325.707 258.947Z" fill="black"/>
<path opacity="0.1" d="M409.344 197.338C409.344 197.338 418.856 194.577 416.502 221.565C414.147 248.553 396.559 265.602 396.559 265.602C396.559 265.602 376.307 274.493 367.204 273.063C358.1 271.634 351.454 271.346 351.454 271.346C348.589 269.899 345.453 269.064 342.247 268.895C337.131 268.688 326.395 265.52 326.188 264.498C325.982 263.476 328.848 248.45 327.619 247.325C327.619 247.325 341.938 247.913 343.373 248.948C344.808 249.982 346.848 249.24 348.382 248.948C349.916 248.656 354.624 244.564 363.93 248.145C363.93 248.145 367.1 248.45 368.329 247.634C369.558 246.818 371.525 247.428 371.525 247.428C371.525 247.428 373.454 246.711 373.751 246.282C374.047 245.852 376.509 246.282 376.509 246.282C376.655 246.353 376.815 246.391 376.978 246.392C377.141 246.394 377.302 246.359 377.449 246.29C377.597 246.221 377.727 246.121 377.83 245.995C377.934 245.869 378.008 245.722 378.047 245.565C378.368 244.728 378.855 243.964 379.478 243.319C379.478 243.319 382.24 227.782 387.456 221.956C387.456 221.956 388.989 220.625 388.581 218.989C388.173 217.353 397.083 194.062 409.344 197.338Z" fill="black"/>
<path d="M409.112 195.26C409.112 195.26 418.624 192.499 416.274 219.487C413.924 246.475 396.306 263.541 396.306 263.541C396.306 263.541 376.054 272.432 366.95 271.003C357.847 269.573 351.2 269.264 351.2 269.264C348.336 267.816 345.2 266.981 341.994 266.812C336.881 266.606 326.141 263.438 325.935 262.416C325.729 261.394 328.594 246.368 327.37 245.243C327.37 245.243 341.689 245.831 343.119 246.866C344.55 247.9 346.599 247.158 348.133 246.866C349.667 246.574 354.371 242.487 363.681 246.063C363.681 246.063 366.851 246.368 368.076 245.552C369.3 244.736 371.276 245.346 371.276 245.346C371.276 245.346 373.192 244.629 373.497 244.221C373.802 243.813 376.26 244.221 376.26 244.221C376.405 244.292 376.565 244.33 376.727 244.332C376.89 244.334 377.05 244.299 377.197 244.231C377.344 244.163 377.474 244.062 377.577 243.937C377.68 243.812 377.754 243.666 377.794 243.508C378.114 242.67 378.601 241.905 379.224 241.259C379.224 241.259 381.987 225.721 387.202 219.895C387.202 219.895 388.736 218.564 388.328 216.933C387.92 215.301 396.817 191.989 409.112 195.26Z" fill="#565387"/>
<path opacity="0.1" d="M335.219 296.673L348.726 312.987C348.777 312.94 348.812 312.906 348.812 312.893C348.915 312.584 350.242 309.11 349.937 308.904C349.632 308.698 347.278 303.589 342.574 301.442C339.7 300.154 337.818 297.797 336.791 296.183L335.219 296.673Z" fill="black"/>
<path opacity="0.1" d="M335.404 324.94L336.881 325.798C336.881 325.798 340.318 323.051 343.717 320.286C347.115 317.521 350.431 314.812 350.487 314.657C350.586 314.352 351.914 310.875 351.609 310.673C351.45 310.566 350.749 309.149 349.461 307.509C340.301 304.933 346.131 311.3 346.909 311.592C346.909 311.592 335.739 309.016 335.146 321.17C335.065 322.432 335.151 323.7 335.404 324.94Z" fill="black"/>
<path d="M346.698 330.083L348.644 331.208L368.406 331.719C368.406 331.719 372.642 334.295 375.392 335.076C375.716 335.177 376.048 335.25 376.384 335.295C378.214 335.443 380.05 335.477 381.883 335.398C383.396 335.359 384.569 335.295 384.569 335.295C384.569 335.295 383.632 310.394 382.927 307.818C382.592 306.564 380.938 306.839 379.306 307.466C378.079 307.963 376.897 308.562 375.77 309.256C375.77 309.256 367.384 310.068 366.052 310.789C364.72 311.51 360.94 310.359 358.586 310.789C356.231 311.218 352.042 308.02 352.042 308.02C340.585 304.241 347.029 311.291 347.845 311.6C347.845 311.6 336.701 309.024 336.087 321.179C335.472 333.333 346.698 330.083 346.698 330.083Z" fill="#565387"/>
<path d="M375.237 320.475C375.452 325.627 379.469 332.019 381.862 335.398C383.374 335.36 384.547 335.295 384.547 335.295C384.547 335.295 383.61 310.394 382.906 307.818C382.571 306.564 380.917 306.839 379.284 307.466C377.321 311.158 375.065 316.323 375.237 320.475Z" fill="#565387"/>
<path opacity="0.1" d="M375.237 320.475C375.452 325.627 379.469 332.019 381.862 335.398C383.374 335.36 384.547 335.295 384.547 335.295C384.547 335.295 383.61 310.394 382.906 307.818C382.571 306.564 380.917 306.839 379.284 307.466C377.321 311.158 375.065 316.323 375.237 320.475Z" fill="black"/>
<path opacity="0.05" d="M371.861 321.157C373.218 326.129 373.205 331.706 375.371 335.076C375.695 335.177 376.027 335.251 376.363 335.295C378.192 335.443 380.029 335.478 381.862 335.398C383.374 335.36 384.547 335.295 384.547 335.295C384.547 335.295 383.61 310.394 382.906 307.818C382.571 306.564 380.917 306.839 379.284 307.466C378.058 307.963 376.875 308.562 375.749 309.256C375.749 309.256 370.125 314.795 371.861 321.157Z" fill="black"/>
<path opacity="0.1" d="M303.758 270.728C303.758 270.728 313.562 273.909 321.871 285.209L303.758 270.728Z" fill="black"/>
<g opacity="0.1">
<path opacity="0.1" d="M383.434 148.077C383.418 148.149 383.398 148.221 383.374 148.291C383.28 148.585 383.167 148.872 383.035 149.15C383.136 148.781 383.269 148.422 383.434 148.077Z" fill="black"/>
<path opacity="0.1" d="M327.963 143.118C328.133 142.402 328.388 141.708 328.723 141.053C328.672 141.229 328.616 141.405 328.573 141.585C328.053 143.809 328.487 146.14 329.028 148.364C329.307 149.511 329.685 150.751 330.678 151.391C332.203 152.366 334.544 151.516 335.799 152.829C336.589 153.666 336.632 155.152 337.663 155.667C338.047 155.834 338.472 155.884 338.883 155.809C341.599 155.422 343.18 152.374 345.787 151.516C347.274 151.035 348.906 151.348 350.363 151.911C350.946 152.09 351.469 152.426 351.875 152.881C352.734 154.01 352.137 155.676 352.541 157.041C353.104 158.939 355.372 159.694 357.335 159.939C359.299 160.184 361.511 160.325 362.821 161.811C363.749 162.858 363.986 164.387 363.797 165.765C363.683 166.246 363.683 166.748 363.797 167.229C364.338 168.762 366.993 168.517 367.663 167.324C368.17 166.443 368.02 165.714 369.214 165.469C370.018 165.301 370.967 165.641 371.714 165.898C373.838 166.629 376.077 166.966 378.322 166.89C380.156 166.826 382.064 166.461 383.507 165.319C384.167 164.793 384.708 164.135 385.097 163.387C384.76 164.749 383.992 165.966 382.906 166.856C381.462 167.989 379.559 168.367 377.72 168.427C375.477 168.503 373.239 168.167 371.117 167.435C370.365 167.178 369.399 166.838 368.613 167.006C367.418 167.251 367.569 167.98 367.066 168.861C366.37 170.071 363.719 170.299 363.174 168.766C363.06 168.285 363.06 167.783 363.174 167.302C363.363 165.915 363.131 164.395 362.203 163.348C360.888 161.867 358.676 161.725 356.712 161.48C354.749 161.236 352.481 160.48 351.922 158.582C351.514 157.213 352.128 155.547 351.256 154.418C350.848 153.964 350.324 153.628 349.74 153.448C348.283 152.885 346.651 152.589 345.164 153.053C342.552 153.911 340.976 156.968 338.26 157.346C337.849 157.421 337.424 157.371 337.04 157.204C336.009 156.689 335.966 155.204 335.176 154.371C333.934 153.057 331.58 153.903 330.059 152.928C329.062 152.288 328.684 151.048 328.405 149.901C327.872 147.673 327.439 145.342 327.963 143.118Z" fill="black"/>
</g>
<path opacity="0.1" d="M385.02 224.927C383.147 227.456 381.007 229.796 379.349 232.47C377.69 235.145 376.518 238.266 376.866 241.392C378.584 239.632 379.366 237.202 380.449 234.995C382.279 231.26 385.02 228.091 387.322 224.657C387.752 224 390.592 220.213 389.161 220.033C387.984 219.882 385.66 224.064 385.02 224.927Z" fill="black"/>
</g>
<defs>
<linearGradient id="paint0_linear" x1="353.43" y1="334.672" x2="353.43" y2="121.058" gradientUnits="userSpaceOnUse">
<stop stop-color="#808080" stop-opacity="0.25"/>
<stop offset="0.54" stop-color="#808080" stop-opacity="0.12"/>
<stop offset="1" stop-color="#808080" stop-opacity="0.1"/>
</linearGradient>
<clipPath id="clip0">
<rect width="490" height="338" fill="white"/>
</clipPath>
</defs>
</svg>
