<svg width="61" height="61" viewBox="0 0 61 61" fill="none" xmlns="http://www.w3.org/2000/svg">
<path d="M59.2129 1.90625H1.78711C0.800148 1.90625 0 2.7064 0 3.69336V46.584C0 47.5709 0.800148 48.3711 1.78711 48.3711H21.5645V55.5195H16.2031C15.2162 55.5195 14.416 56.3197 14.416 57.3066C14.416 58.2936 15.2162 59.0938 16.2031 59.0938H44.7969C45.7838 59.0938 46.584 58.2936 46.584 57.3066C46.584 56.3197 45.7838 55.5195 44.7969 55.5195H39.4355V48.3711H59.2129C60.1999 48.3711 61 47.5709 61 46.584V3.69336C61 2.7064 60.1999 1.90625 59.2129 1.90625ZM57.4258 5.48047V37.6484H3.57422V5.48047H57.4258ZM35.8613 55.5195H25.1387V48.3711H35.8613V55.5195ZM3.57422 44.7969V41.2227H57.4258V44.7969H3.57422Z" fill="white"/>
<path d="M8.93555 19.7773H34.0742C35.0612 19.7773 35.8613 18.9772 35.8613 17.9902V10.8418C35.8613 9.85484 35.0612 9.05469 34.0742 9.05469H8.93555C7.94859 9.05469 7.14844 9.85484 7.14844 10.8418V17.9902C7.14844 18.9772 7.94859 19.7773 8.93555 19.7773ZM10.7227 12.6289H32.2871V16.2031H10.7227V12.6289Z" fill="white"/>
<path d="M8.93555 34.0742H34.0742C35.0612 34.0742 35.8613 33.2741 35.8613 32.2871V25.1387C35.8613 24.1517 35.0612 23.3516 34.0742 23.3516H8.93555C7.94859 23.3516 7.14844 24.1517 7.14844 25.1387V32.2871C7.14844 33.2741 7.94859 34.0742 8.93555 34.0742ZM10.7227 26.9258H32.2871V30.5H10.7227V26.9258Z" fill="white"/>
<path d="M41.2227 34.0742H52.0645C53.0514 34.0742 53.8516 33.2741 53.8516 32.2871V10.8418C53.8516 9.85484 53.0514 9.05469 52.0645 9.05469H41.2227C40.2357 9.05469 39.4355 9.85484 39.4355 10.8418V32.2871C39.4355 33.2741 40.2357 34.0742 41.2227 34.0742ZM43.0098 12.6289H50.2773V30.5H43.0098V12.6289Z" fill="white"/>
</svg>
