<svg width="25" height="25" viewBox="0 0 25 25" fill="none" xmlns="http://www.w3.org/2000/svg">
<g clip-path="url(#clip0)">
<path d="M17.3207 13.2812H7.6793C7.54229 13.2812 7.43159 13.3941 7.43511 13.5311C7.46426 14.6613 7.54082 15.7409 7.65728 16.7618C7.67403 16.9086 7.81587 17.0079 7.95913 16.9714C9.43316 16.5958 10.9522 16.4062 12.5 16.4062C14.0478 16.4062 15.5668 16.5958 17.0409 16.9714C17.1841 17.0079 17.326 16.9086 17.3427 16.7618C17.4592 15.7409 17.5357 14.6612 17.5649 13.5311C17.5684 13.3941 17.4577 13.2812 17.3207 13.2812Z" fill="white"/>
<path d="M17.3427 8.23818C17.326 8.09131 17.1841 7.99209 17.0409 8.02856C15.5668 8.40415 14.0478 8.59375 12.5 8.59375C10.9522 8.59375 9.43316 8.40415 7.95913 8.02861C7.81592 7.99214 7.67403 8.09136 7.65728 8.23823C7.54082 9.25913 7.46426 10.3388 7.43511 11.4689C7.43159 11.6059 7.54224 11.7187 7.6793 11.7187H17.3207C17.4577 11.7187 17.5684 11.6059 17.5648 11.4689C17.5357 10.3387 17.4591 9.25908 17.3427 8.23818Z" fill="white"/>
<path d="M17.0409 6.17773C16.6034 3.75708 15.9329 1.77188 15.1589 0.368945C15.1245 0.306445 15.064 0.262354 14.9941 0.248242C14.1818 0.0845703 13.3475 0 12.5 0C11.6525 0 10.8182 0.0845703 10.006 0.248291C9.93599 0.262402 9.87554 0.306494 9.84107 0.368994C9.06714 1.77188 8.39659 3.75708 7.95909 6.17778C7.93667 6.30171 8.01289 6.4231 8.13448 6.45586C9.52706 6.83096 10.9906 7.03125 12.5 7.03125C14.0094 7.03125 15.473 6.83096 16.8655 6.45581C16.9871 6.4231 17.0633 6.30166 17.0409 6.17773Z" fill="white"/>
<path d="M17.6958 1.12466C17.4968 1.03369 17.2896 1.23232 17.3682 1.43642C17.3696 1.44004 17.371 1.44365 17.3724 1.44726C17.8476 2.68281 18.2336 4.0855 18.5225 5.60244C18.5513 5.75405 18.7128 5.84043 18.8555 5.78183C19.8166 5.38745 20.7331 4.90625 21.5957 4.34844C21.7234 4.26587 21.7463 4.08779 21.6427 3.97646C21.5435 3.86987 21.4423 3.7647 21.3388 3.66118C20.267 2.58926 19.0344 1.73667 17.6958 1.12466Z" fill="white"/>
<path d="M19.3717 11.7187H24.7126C24.8558 11.7187 24.9679 11.5961 24.9562 11.4535C24.7835 9.35781 24.0939 7.36811 22.9487 5.6333C22.8738 5.51978 22.7217 5.48906 22.6082 5.56401C21.6753 6.18037 20.6863 6.71089 19.6465 7.15063C19.4333 7.24087 19.2187 7.32676 19.003 7.40854C18.8971 7.44868 18.8324 7.55518 18.8465 7.66753C19.0003 8.89307 19.0955 10.1715 19.128 11.4801C19.1313 11.6127 19.2391 11.7187 19.3717 11.7187Z" fill="white"/>
<path d="M7.95909 18.8223C8.39659 21.2429 9.06714 23.2281 9.84107 24.6311C9.87554 24.6936 9.93599 24.7376 10.006 24.7518C10.8182 24.9154 11.6525 25 12.5 25C13.3475 25 14.1818 24.9154 14.9941 24.7517C15.064 24.7376 15.1245 24.6935 15.1589 24.631C15.9329 23.2281 16.6034 21.2429 17.0409 18.8222C17.0633 18.6983 16.9871 18.5769 16.8655 18.5441C15.473 18.169 14.0094 17.9688 12.5 17.9688C10.9906 17.9688 9.52706 18.169 8.13448 18.5442C8.01289 18.5769 7.93667 18.6983 7.95909 18.8223Z" fill="white"/>
<path d="M5.35347 17.8494C5.56675 17.7591 5.7813 17.6732 5.99702 17.5914C6.10288 17.5513 6.16758 17.4448 6.15347 17.3325C5.99976 16.1069 5.90454 14.8285 5.87202 13.5199C5.8687 13.3873 5.76094 13.2813 5.62832 13.2813H0.287402C0.144238 13.2813 0.03208 13.4039 0.0438475 13.5466C0.216455 15.6422 0.906152 17.6319 2.05127 19.3667C2.12617 19.4802 2.27832 19.511 2.3918 19.436C3.32476 18.8196 4.31372 18.2891 5.35347 17.8494Z" fill="white"/>
<path d="M21.5957 20.6516C20.7332 20.0938 19.8166 19.6126 18.8556 19.2182C18.7128 19.1596 18.5514 19.246 18.5225 19.3976C18.2336 20.9146 17.8477 22.3172 17.3724 23.5528C17.371 23.5564 17.3696 23.56 17.3683 23.5636C17.2896 23.7677 17.4969 23.9664 17.6958 23.8754C19.0344 23.2634 20.267 22.4108 21.3389 21.3389C21.4424 21.2354 21.5436 21.1302 21.6428 21.0236C21.7464 20.9123 21.7234 20.7342 21.5957 20.6516Z" fill="white"/>
<path d="M19.128 13.5198C19.0955 14.8285 19.0002 16.1069 18.8465 17.3324C18.8324 17.4448 18.8971 17.5513 19.003 17.5914C19.2187 17.6732 19.4333 17.7591 19.6465 17.8493C20.6863 18.2891 21.6753 18.8196 22.6082 19.4359C22.7217 19.5109 22.8738 19.4801 22.9487 19.3667C24.0939 17.6319 24.7835 15.6422 24.9562 13.5465C24.9679 13.4038 24.8558 13.2812 24.7126 13.2812H19.3717C19.2391 13.2813 19.1313 13.3873 19.128 13.5198Z" fill="white"/>
<path d="M3.4043 4.34838C4.26685 4.90619 5.1834 5.38744 6.14444 5.78177C6.28721 5.84037 6.44864 5.75399 6.47749 5.60238C6.76636 4.08544 7.15235 2.68275 7.62759 1.4472C7.62896 1.44359 7.63037 1.43998 7.63174 1.43636C7.7104 1.23226 7.50313 1.03363 7.3042 1.1246C5.96563 1.73666 4.73306 2.58924 3.66114 3.66112C3.55762 3.76463 3.4564 3.86981 3.35718 3.9764C3.25362 4.08773 3.27661 4.26581 3.4043 4.34838Z" fill="white"/>
<path d="M5.8668 11.7188C5.89321 10.3269 5.99048 8.96743 6.15347 7.66753C6.16758 7.55518 6.10288 7.44868 5.99702 7.40855C5.7813 7.32676 5.56675 7.24087 5.35347 7.15064C4.31372 6.71084 3.32476 6.18032 2.3918 5.56402C2.27832 5.48906 2.12622 5.51983 2.05127 5.6333C0.906152 7.36812 0.216455 9.35782 0.0438475 11.4535C0.03208 11.5961 0.144238 11.7188 0.287402 11.7188H5.8668Z" fill="white"/>
<path d="M7.30426 23.8753C7.50319 23.9663 7.71046 23.7677 7.6318 23.5636C7.63043 23.56 7.62902 23.5563 7.62765 23.5527C7.15245 22.3172 6.76642 20.9145 6.47755 19.3976C6.44869 19.2459 6.28727 19.1596 6.14449 19.2182C5.18346 19.6125 4.2669 20.0937 3.40435 20.6516C3.27662 20.7341 3.25367 20.9122 3.35728 21.0235C3.4565 21.1301 3.55772 21.2353 3.66124 21.3388C4.73306 22.4107 5.96563 23.2633 7.30426 23.8753Z" fill="white"/>
</g>
<defs>
<clipPath id="clip0">
<rect width="25" height="25" fill="white"/>
</clipPath>
</defs>
</svg>
