<svg width="61" height="61" viewBox="0 0 61 61" fill="none" xmlns="http://www.w3.org/2000/svg">
<path d="M59.2129 1.90625H1.78711C0.800148 1.90625 0 2.7064 0 3.69336V57.3066C0 58.2936 0.800148 59.0938 1.78711 59.0938H59.2129C60.1999 59.0938 61 58.2936 61 57.3066V3.69336C61 2.7064 60.1999 1.90625 59.2129 1.90625ZM57.4258 9.05469H46.7031V5.48047H57.4258V9.05469ZM43.1289 5.48047V9.05469H3.57422V5.48047H43.1289ZM3.57422 55.5195V12.6289H57.4258V55.5195H3.57422Z" fill="white"/>
<path d="M26.9258 16.2031H8.93555C7.94859 16.2031 7.14844 17.0033 7.14844 17.9902V50.1582C7.14844 51.1452 7.94859 51.9453 8.93555 51.9453H26.9258C27.9127 51.9453 28.7129 51.1452 28.7129 50.1582V17.9902C28.7129 17.0033 27.9127 16.2031 26.9258 16.2031ZM25.1387 48.3711H10.7227V19.7773H25.1387V48.3711Z" fill="white"/>
<path d="M52.0645 19.7773H34.0742C33.0873 19.7773 32.2871 20.5775 32.2871 21.5645C32.2871 22.5514 33.0873 23.3516 34.0742 23.3516H52.0645C53.0514 23.3516 53.8516 22.5514 53.8516 21.5645C53.8516 20.5775 53.0514 19.7773 52.0645 19.7773Z" fill="white"/>
<path d="M52.0645 26.9258H34.0742C33.0873 26.9258 32.2871 27.7259 32.2871 28.7129C32.2871 29.6999 33.0873 30.5 34.0742 30.5H52.0645C53.0514 30.5 53.8516 29.6999 53.8516 28.7129C53.8516 27.7259 53.0514 26.9258 52.0645 26.9258Z" fill="white"/>
<path d="M52.0645 37.6484H34.0742C33.0873 37.6484 32.2871 38.4486 32.2871 39.4355C32.2871 40.4225 33.0873 41.2227 34.0742 41.2227H52.0645C53.0514 41.2227 53.8516 40.4225 53.8516 39.4355C53.8516 38.4486 53.0514 37.6484 52.0645 37.6484Z" fill="white"/>
<path d="M52.0645 44.7969H34.0742C33.0873 44.7969 32.2871 45.597 32.2871 46.584C32.2871 47.5709 33.0873 48.3711 34.0742 48.3711H52.0645C53.0514 48.3711 53.8516 47.5709 53.8516 46.584C53.8516 45.597 53.0514 44.7969 52.0645 44.7969Z" fill="white"/>
</svg>
