<?xml version="1.0" standalone="no"?>
<!DOCTYPE svg PUBLIC "-//W3C//DTD SVG 20010904//EN"
 "http://www.w3.org/TR/2001/REC-SVG-20010904/DTD/svg10.dtd">
<svg version="1.0" xmlns="http://www.w3.org/2000/svg"
 width="1088.000000pt" height="1088.000000pt" viewBox="0 0 1088.000000 1088.000000"
 preserveAspectRatio="xMidYMid meet">
<metadata>
Created by potrace 1.11, written by Peter Selinger 2001-2013
</metadata>
<g transform="translate(0.000000,1088.000000) scale(0.100000,-0.100000)"
fill="#000000" stroke="none">
<path d="M84 8477 c-8 -5 -12 -12 -10 -16 7 -11 7 89 6 -3081 l-1 -2975 20 1
c12 0 21 -3 21 -8 0 -5 4 -7 9 -4 7 5 59 7 111 5 8 0 40 0 70 0 91 1 524 2
540 2 8 -1 35 0 60 0 25 0 52 1 60 0 38 -1 406 -2 410 0 3 1 9 1 13 0 13 -2
290 -3 302 0 6 1 14 1 18 0 7 -1 208 -1 247 0 8 0 35 0 60 0 54 -1 44 -1 250
0 91 0 174 0 185 -1 24 -1 24 -1 95 -1 30 1 105 1 165 0 172 0 268 0 295 1 14
1 30 2 35 1 30 -1 242 -2 250 0 6 1 14 1 18 0 13 -2 290 -3 302 0 6 1 14 1 19
0 5 -1 95 -2 200 -1 105 0 200 0 211 0 11 0 40 1 65 1 25 0 52 1 60 0 8 0 125
0 260 0 135 0 254 0 265 -1 24 -1 25 -1 95 -1 30 1 105 1 165 0 172 0 268 0
295 1 14 1 32 1 40 1 8 0 89 0 180 0 91 0 174 0 185 -1 24 -1 24 -1 95 -1 30
1 105 1 165 0 172 0 268 0 295 1 14 1 32 1 40 1 8 0 53 0 100 0 47 0 90 0 95
0 6 0 30 0 55 0 25 0 54 -1 65 0 115 0 426 0 448 -1 26 0 27 2 27 47 1 27 1
384 1 796 l0 747 649 0 c631 0 650 -1 660 -19 5 -11 11 -28 13 -38 2 -10 7
-25 10 -33 4 -8 30 -80 58 -160 28 -80 57 -163 65 -185 8 -22 16 -47 19 -55 2
-8 9 -28 15 -45 6 -16 13 -37 15 -45 5 -19 43 -128 55 -155 5 -11 33 -92 64
-180 105 -307 147 -430 156 -450 4 -11 18 -49 30 -85 12 -36 25 -72 28 -80 3
-8 6 -21 8 -29 1 -7 6 -17 11 -22 7 -7 131 -14 158 -9 6 1 14 2 18 1 13 -2
290 -3 302 0 6 1 14 1 18 0 7 -1 208 -1 247 0 8 0 35 0 60 0 54 -1 44 -1 250
0 91 0 174 0 185 -1 24 -1 24 -1 95 -1 30 1 105 1 165 0 61 0 144 0 185 1 41
1 80 1 85 0 6 -1 20 -2 33 -1 32 1 38 -14 -155 391 -76 158 -144 302 -173 365
-15 33 -55 116 -88 185 -33 69 -61 130 -63 135 -2 6 -29 62 -59 125 -31 63
-74 153 -96 200 -21 47 -60 128 -85 180 l-46 95 19 55 c11 30 23 62 26 70 3 8
6 20 8 25 1 6 41 123 89 260 47 138 117 340 154 450 38 110 76 217 84 238 9
20 16 38 15 40 -2 3 32 108 42 132 10 22 79 222 85 245 2 8 36 107 75 220 39
113 73 212 75 220 2 8 22 65 44 127 22 61 38 113 36 115 -3 2 -31 80 -64 174
-32 93 -80 228 -106 299 -26 72 -49 139 -52 150 -2 11 -8 29 -13 40 -4 11 -11
29 -15 40 -4 11 -29 83 -57 160 -27 77 -51 145 -52 150 -2 6 -6 17 -9 25 -4 8
-34 94 -67 190 -34 96 -66 189 -73 205 -6 17 -13 35 -14 40 -1 6 -21 62 -43
125 -23 63 -45 126 -50 140 -4 14 -31 90 -60 170 -28 80 -62 176 -76 215 -13
38 -28 73 -33 78 -6 6 -4402 13 -4636 8 -20 -1 -20 -8 -19 -2166 l0 -2165
-1641 0 -1642 0 1 2161 c1 1681 -2 2163 -11 2166 -22 9 -1854 8 -1869 0z m234
-158 c15 5 36 5 47 1 11 -4 24 -5 29 -2 13 7 136 8 136 0 0 -4 12 -3 28 1 15
5 36 5 47 1 11 -4 24 -5 29 -2 13 7 136 8 136 0 0 -4 12 -3 28 1 15 5 36 5 47
1 11 -4 24 -5 29 -2 13 7 136 8 136 0 0 -4 12 -3 28 1 15 5 36 5 47 1 11 -4
24 -5 29 -2 13 7 136 8 136 0 0 -4 12 -3 28 1 15 5 36 5 47 1 11 -4 24 -5 29
-2 13 7 136 8 136 0 0 -4 12 -3 28 1 15 5 36 5 47 1 11 -4 24 -5 29 -2 12 7
136 8 136 1 0 -3 13 -4 29 -1 16 2 32 -1 36 -9 5 -6 8 -981 8 -2166 l0 -2153
1721 0 1722 0 0 -719 c0 -456 -3 -718 -9 -714 -9 5 -198 7 -222 2 -6 -1 -13
-1 -17 1 -5 1 -28 1 -53 1 -25 0 -48 0 -52 -1 -5 -2 -12 -1 -18 0 -13 2 -87 2
-100 0 -5 -1 -14 -1 -20 0 -13 2 -87 2 -100 0 -5 -1 -14 -1 -20 0 -5 1 -39 2
-75 1 -36 -1 -71 -2 -77 -2 -7 0 -33 0 -58 0 -25 0 -52 0 -60 0 -8 0 -35 0
-60 0 -25 0 -52 0 -60 0 -8 0 -35 0 -60 0 -25 0 -52 0 -60 0 -8 0 -35 0 -60 0
-25 0 -51 0 -57 0 -112 2 -785 2 -846 1 -46 -1 -85 0 -88 3 -3 2 -20 1 -39 -3
-19 -4 -37 -5 -40 -2 -5 5 -77 7 -100 2 -5 -1 -14 -1 -20 0 -13 2 -87 2 -100
0 -5 -1 -14 -1 -20 0 -13 2 -87 2 -100 0 -5 -1 -14 -1 -20 0 -13 2 -87 2 -100
0 -5 -1 -14 -1 -20 0 -13 2 -87 2 -100 0 -5 -1 -14 -1 -20 0 -13 2 -87 2 -100
0 -5 -1 -14 -1 -20 0 -13 2 -87 2 -100 0 -5 -1 -14 -1 -20 0 -13 2 -87 2 -100
0 -5 -1 -14 -2 -20 0 -14 2 -847 2 -860 0 -5 -1 -13 -2 -17 0 -5 1 -28 1 -53
1 -25 0 -48 0 -52 -1 -5 -2 -12 -1 -18 0 -13 2 -87 2 -100 0 -5 -1 -14 -1 -20
0 -13 2 -87 2 -100 0 -5 -1 -14 -1 -20 0 -5 1 -30 2 -55 1 -25 0 -66 0 -92 0
-27 0 -55 0 -63 0 -8 0 -35 0 -60 0 -25 0 -52 0 -60 0 -8 0 -34 0 -57 0 -24 0
-70 1 -103 2 l-60 2 -2 45 c-1 25 -2 47 -3 50 -1 3 -1 23 -1 45 1 33 1 163 0
250 0 11 0 54 1 95 1 41 1 80 0 85 -1 6 -2 14 -1 18 1 7 1 147 1 197 -1 8 -1
44 -1 80 1 36 1 72 1 80 0 8 0 33 1 55 0 22 0 45 -1 50 -1 6 -1 28 -1 50 1 33
1 163 0 250 0 11 0 54 1 95 1 41 1 80 0 85 -1 6 -2 14 -1 18 1 7 1 147 1 197
-1 8 -1 44 -1 80 1 36 1 72 1 80 0 8 0 33 1 55 0 22 0 45 -1 50 -1 6 -1 28 -1
50 1 33 1 163 0 250 0 11 0 54 1 95 1 41 1 80 0 85 -1 6 -2 14 -1 18 1 7 1
147 1 197 -1 8 -1 44 -1 80 1 36 1 72 1 80 0 8 0 33 1 55 0 22 0 45 -1 50 -1
6 -1 28 -1 50 1 33 1 163 0 250 0 11 0 54 1 95 1 41 1 80 0 85 -1 6 -2 14 -1
18 1 7 1 147 1 197 -1 8 -1 44 -1 80 1 36 1 72 1 80 0 8 0 33 1 55 0 22 0 45
-1 50 -1 6 -1 28 -1 50 1 33 1 163 0 250 0 11 0 54 1 95 1 41 1 80 0 85 -1 6
-2 14 -1 18 1 7 1 147 1 197 -1 8 -1 44 -1 80 1 36 1 72 1 80 0 8 0 33 1 55 0
22 0 45 -1 50 -1 6 -1 28 -1 50 1 33 1 163 0 250 0 11 0 54 1 95 1 41 1 80 0
85 -1 6 -2 14 -1 18 5 30 3 186 -3 196 -4 6 -3 11 2 11 5 0 7 17 3 38 -3 20
-5 56 -3 79 3 34 7 42 25 45 12 2 23 0 25 -4 2 -3 15 -3 30 1z m5248 1 c19 4
36 4 39 0 3 -4 21 -4 40 0 19 4 37 4 40 0 3 -4 21 -4 40 0 19 4 37 4 40 0 3
-4 21 -4 40 0 19 4 37 4 40 0 3 -4 21 -4 40 0 19 4 37 4 40 0 3 -4 21 -4 40 0
19 4 37 4 40 0 3 -4 21 -4 40 0 19 4 37 4 40 0 3 -4 21 -4 40 0 19 4 37 4 40
0 3 -4 21 -4 40 0 19 4 37 4 40 0 3 -4 21 -4 40 0 19 4 37 4 40 0 3 -4 21 -4
40 0 19 4 37 4 40 0 3 -4 21 -4 40 0 19 4 37 4 40 0 3 -4 21 -4 40 0 19 4 37
4 40 0 3 -4 21 -4 40 0 19 4 37 4 40 0 3 -4 21 -4 40 0 19 4 37 4 40 0 3 -4
21 -4 40 0 19 4 37 4 40 0 3 -4 21 -4 40 0 19 4 37 4 40 0 3 -4 21 -4 40 0 19
4 37 4 40 0 3 -4 21 -4 40 0 19 4 37 4 40 0 3 -4 21 -4 40 0 19 4 37 4 40 0 3
-4 21 -4 40 0 19 4 37 4 40 0 3 -4 21 -4 40 0 19 4 37 4 40 0 3 -4 21 -4 40 0
19 4 37 4 40 0 3 -4 21 -4 40 0 19 4 37 4 40 0 3 -4 21 -4 40 0 19 4 37 4 40
0 3 -4 21 -4 40 0 20 4 38 4 41 -1 3 -5 10 -7 15 -3 13 8 124 9 137 0 6 -3 13
-2 16 3 4 6 18 6 36 1 17 -5 30 -6 30 -2 0 8 128 7 136 -1 3 -3 16 -2 28 3 13
4 29 4 36 0 8 -5 18 -6 23 -3 12 7 146 8 153 0 3 -3 16 -2 28 3 13 4 29 4 36
0 8 -5 18 -6 23 -3 12 7 146 8 153 0 3 -3 16 -2 28 3 13 4 29 4 36 0 8 -5 18
-6 23 -3 12 7 146 8 153 0 3 -3 16 -2 28 3 13 4 29 4 36 0 8 -5 18 -6 23 -3
12 7 146 8 153 0 3 -3 16 -2 28 3 13 4 29 4 36 0 8 -5 18 -6 23 -3 12 7 146 8
153 0 3 -3 16 -2 28 3 13 4 29 4 36 0 8 -5 18 -6 23 -3 12 7 146 8 153 0 3 -3
16 -2 28 3 13 4 29 4 36 0 8 -5 18 -6 23 -3 12 7 146 8 153 0 3 -3 16 -2 29 3
13 5 26 6 29 2 4 -3 22 -5 41 -4 38 3 31 16 115 -223 43 -124 63 -179 150
-425 29 -80 53 -149 54 -155 2 -5 6 -17 9 -25 3 -8 17 -49 32 -90 14 -41 28
-82 32 -90 3 -8 7 -19 9 -25 5 -22 115 -331 123 -350 5 -11 12 -29 14 -40 3
-11 24 -72 47 -135 49 -136 116 -327 137 -390 8 -25 21 -58 28 -74 12 -26 7
-47 -67 -260 -44 -127 -86 -249 -93 -271 -7 -22 -47 -139 -90 -260 -42 -121
-78 -224 -79 -230 -2 -5 -5 -17 -8 -25 -3 -8 -20 -58 -38 -110 -18 -52 -35
-102 -38 -110 -3 -8 -6 -19 -8 -25 -1 -5 -16 -48 -32 -95 -17 -47 -58 -166
-92 -265 -33 -99 -64 -187 -67 -195 -3 -8 -8 -23 -10 -33 -1 -10 -10 -31 -18
-48 -9 -16 -13 -29 -11 -29 3 0 -2 -17 -10 -37 -9 -20 -17 -44 -19 -52 -2 -9
-17 -53 -34 -99 l-30 -83 18 -42 c11 -23 47 -100 81 -172 34 -71 77 -161 95
-200 18 -38 61 -128 95 -200 34 -71 77 -161 95 -200 75 -161 115 -246 167
-355 157 -327 159 -333 147 -341 -7 -4 -17 -5 -22 -2 -12 7 -91 8 -103 1 -5
-3 -18 -2 -28 1 -11 4 -39 4 -62 1 -24 -4 -46 -4 -49 -1 -5 4 -78 5 -100 1 -5
-1 -14 -1 -20 0 -13 2 -87 2 -100 0 -5 -1 -14 -1 -20 0 -13 2 -87 2 -100 0 -5
-1 -14 -1 -20 0 -13 2 -87 2 -100 0 -5 -1 -14 -2 -20 0 -5 1 -166 2 -357 2
-192 0 -348 1 -348 3 0 2 -25 74 -56 161 -30 88 -67 193 -80 234 -14 41 -29
84 -34 95 -5 11 -36 101 -70 200 -34 99 -70 202 -81 229 -10 27 -19 56 -19 65
0 10 -4 21 -9 26 -5 6 -25 57 -44 115 -20 58 -63 183 -96 279 -34 95 -61 175
-61 177 0 2 -357 4 -792 4 l-793 0 2 -47 c1 -27 2 -64 3 -83 1 -19 1 -91 0
-160 -1 -70 -1 -130 1 -135 1 -6 0 -14 -1 -20 -1 -5 -1 -30 -1 -55 1 -25 1
-76 0 -115 -1 -57 0 -247 2 -297 0 -7 -1 -37 -3 -66 -2 -28 1 -52 5 -52 5 0 6
-4 2 -9 -7 -12 -10 -339 -3 -347 4 -3 2 -18 -2 -34 -4 -16 -7 -30 -5 -32 4 -3
5 -37 5 -111 0 -26 -2 -27 -47 -26 -27 1 -52 0 -58 -1 -5 -1 -13 -2 -17 0 -5
1 -28 1 -53 1 -25 0 -48 0 -52 -1 -5 -2 -12 -1 -18 0 -13 2 -87 2 -100 0 -5
-1 -14 -1 -20 0 -10 2 -24 2 -165 1 -36 0 -73 0 -82 0 -10 0 -38 0 -63 0 -25
0 -52 0 -60 0 -8 0 -35 0 -60 0 -25 0 -52 0 -60 0 -8 0 -35 0 -60 0 -25 0 -52
0 -60 0 -8 0 -35 0 -60 0 -25 0 -53 0 -62 0 -10 0 -43 0 -73 0 -70 0 -71 0
-95 -1 -11 0 -41 0 -67 0 -27 0 -56 0 -65 0 -60 0 -71 3 -75 18 -3 14 -2 5629
1 5714 1 25 4 26 47 26 25 0 48 3 52 6 3 4 10 2 15 -3 5 -5 24 -5 43 -1z"/>
<path d="M6593 6208 l2 -903 998 0 c550 0 1002 2 1006 5 4 3 21 27 37 53 16
27 36 59 44 73 69 109 140 228 140 235 0 5 5 9 10 9 6 0 10 7 10 15 0 8 5 15
10 15 6 0 10 4 10 10 0 5 45 82 100 170 55 89 100 163 100 165 0 2 29 49 65
105 56 89 63 105 53 124 -6 11 -14 23 -18 26 -3 3 -26 34 -50 70 -24 36 -48
70 -53 75 -4 6 -62 87 -127 180 -65 94 -167 239 -226 323 l-107 152 -1003 0
-1002 0 1 -902z m1934 725 c4 -10 9 -20 13 -23 3 -3 33 -43 65 -90 32 -47 63
-88 69 -92 6 -5 7 -8 1 -8 -6 0 -6 -3 1 -8 6 -4 45 -56 87 -117 93 -134 162
-232 203 -288 31 -41 31 -43 15 -72 -28 -51 -75 -129 -84 -140 -5 -5 -22 -32
-38 -60 -16 -27 -35 -59 -42 -70 -77 -121 -117 -187 -117 -192 0 -3 -11 -21
-25 -39 -14 -18 -25 -35 -25 -38 0 -4 -127 -214 -137 -226 -5 -6 -1732 -8
-1749 -2 -9 2 -12 196 -12 735 0 403 2 735 5 740 2 4 400 7 884 7 829 0 880
-1 886 -17z"/>
</g>
</svg>
